<svg width="834" height="692" viewBox="0 0 834 692" fill="none" xmlns="http://www.w3.org/2000/svg">
<path d="M671.892 12.7986C698.279 -1.01413 732.434 -7.33001 764.724 15.2361C790.761 33.433 803.892 61.5469 808.606 88.4202C813.286 115.098 810.167 143.068 800.891 163.837L764.999 147.804C770.673 135.1 773.395 115.214 769.887 95.2146C766.412 75.4101 757.323 58.0216 742.204 47.4553C726.221 36.2862 708.888 37.8009 690.126 47.6216C670.905 57.683 653.536 75.1077 643.077 88.5545L612.048 64.4222C624.518 48.389 645.964 26.3718 671.892 12.7986Z" fill="black"/>
<path d="M83.353 453.847C65.5648 465.788 51.2716 484.566 44.1795 504.984C37.1122 525.331 37.6443 545.736 46.777 562.372C66.3103 597.954 103.549 607.703 136.73 589.838L155.366 624.45C103.378 652.442 42.3459 635.983 12.3186 581.284C-3.32764 552.78 -2.7923 520.414 7.04686 492.086C16.8615 463.83 36.3866 438.028 61.4471 421.206L83.353 453.847Z" fill="black"/>
<path d="M209.698 483.384C140.909 499.762 140.909 575.102 163.839 611.134C226.076 709.404 366.929 702.853 592.95 568.551C818.97 434.249 815.695 211.504 796.041 178.748C776.387 145.991 720.7 132.888 609.328 247.536C497.956 362.184 278.487 467.006 209.698 483.384Z" fill="white"/>
<path d="M743.225 151.671C764.785 163.431 781.011 181.403 789.462 199.289C793.667 208.19 796.458 218.168 796.065 228.054C795.657 238.283 791.652 249.393 781.446 256.857C774.614 261.852 767.38 261.223 763.922 260.523C761.029 259.937 758.549 258.883 756.712 257.963C753.688 264.736 748.979 272.055 742.182 279.985C738.481 284.303 733.533 288.257 727.135 290.272C724.385 291.138 721.664 291.527 719.029 291.577C715.456 299.653 708.951 306.037 700.776 310.579C689.688 316.739 678.079 317.107 667.706 313.72C658.043 310.565 650.076 304.412 643.958 298.327C643.183 297.557 642.424 296.767 641.674 295.966C638.152 298.443 634.398 300.278 630.842 301.647C633.815 305.709 636.59 310.005 638.961 314.449C646.441 328.474 653.838 351.941 637.541 371.498C632.004 378.142 624.421 381.869 616.146 382.259C610.352 382.532 605.137 381.126 600.92 379.393C598.066 386.237 593.459 392.759 587.203 399.015C583.393 402.825 578.429 406.238 572.226 407.786C569.592 408.443 567.005 408.681 564.51 408.605C564.498 408.724 564.498 408.844 564.484 408.964C563.484 417.866 559.427 426.629 553.627 435.329C549.357 441.735 543.437 447.144 535.599 449.903C527.854 452.628 520.387 452.012 514.32 450.332C503.215 447.256 493.186 439.542 486.291 433.864C485.358 433.096 484.486 432.342 483.642 431.631C483.197 432.493 482.748 433.347 482.273 434.177C481.291 435.896 480.661 437.141 480.258 437.984C481.015 444.412 479.195 449.938 476.554 454.88C474.119 459.435 470.151 465.062 464.347 472.525C458.298 480.302 449.397 485.53 438.628 485.148C429.351 484.818 421.821 480.369 416.837 476.614C416.412 476.294 415.997 475.957 415.576 475.622C412.131 479.705 407.906 481.985 404.272 483.197C400.996 484.289 397.711 484.636 396.262 484.777C391.667 492.363 384.642 497.179 376.48 498.795C377.036 509.646 374.525 521.66 365.482 532.21C359.378 539.332 351.216 543.034 342.546 543.381C334.726 543.693 327.678 541.253 322.278 538.659C311.58 533.52 301.164 524.674 293.002 517.022C292.45 516.505 291.906 515.978 291.357 515.454C286.918 527.06 278.187 539.951 260.968 544.871C251.59 547.551 241.135 546.675 232.69 539.657C225.444 533.635 222.63 525.428 221.417 519.971C220.914 517.708 220.579 515.387 220.368 513.074C217.231 511.368 214.804 509.476 213.234 508.225C207.055 503.301 204.501 500.659 198.794 498.756L211.219 461.47C223.494 465.562 231.872 472.605 236.189 476.217L261.627 463.498C266.202 457.492 272.908 455.434 278.255 455.591C282.638 455.719 285.899 457.236 287.192 457.881C288.8 458.683 290.098 459.564 290.954 460.184C293.971 462.37 297.252 465.614 299.732 468.111C305.702 474.121 312.241 481.181 319.885 488.347C326.61 494.651 332.573 499.432 337.249 502.134C337.371 500.214 337.059 497.7 335.931 494.425C334.817 491.192 333.166 488.145 331.484 485.814C329.515 483.084 328.618 482.836 329.763 483.472L347.293 448.335C350.991 449.979 355.681 452.812 358.534 454.458C361.487 456.162 364.057 457.559 366.326 458.597C368.048 456.373 370.028 454.37 372.283 452.641C375.175 450.424 378.119 448.959 380.843 447.971C380.119 445.096 379.101 441.439 377.663 436.839C375.739 430.682 374.075 425.003 373.543 420.985C373.408 419.965 373.141 417.688 373.447 415.009C373.547 414.139 374.561 403.378 385.462 398.702C390.899 396.369 395.885 397.01 398.885 397.876C401.751 398.704 403.808 399.994 404.867 400.723C406.974 402.176 408.444 403.759 409.07 404.453C411.461 407.104 414.216 411.286 416.133 414.171C418.513 417.754 421.098 421.71 424.002 425.873C428.91 432.907 433.623 438.851 437.61 442.699C438.993 440.811 439.975 439.385 440.668 438.323C440.585 436.483 440.625 434.383 440.963 432.354C441.811 427.268 444.03 422.14 447.021 416.679C445.587 414.991 444.076 412.763 443.055 409.955C439.927 401.352 443.077 393.974 445.87 389.975C448.263 386.548 451.328 384.064 453.419 382.496L455.083 381.351C463.434 376.051 472.23 377.33 477.507 379.099C482.853 380.89 487.534 384.021 490.891 386.495C497.077 391.053 506.025 399.197 511.281 403.525C516.226 407.598 519.827 410.045 522.291 411.356C523.453 409.446 524.191 407.977 524.652 406.897C524.528 406.819 524.4 406.732 524.262 406.648C523.588 406.236 521.324 404.899 520.001 404.056C518.457 403.073 515.921 401.384 513.552 399.015C509.178 394.641 507.517 389.537 506.847 386.085C506.163 382.561 506.206 379.236 506.412 376.636C506.824 371.442 508.16 366.077 509.547 361.518C512.376 352.217 516.608 342.475 519.694 336.304L542.54 290.618L552.418 326.196C552.489 325.724 552.579 325.234 552.693 324.731C553.527 321.07 556.163 314.902 563.135 311.417C569.379 308.295 575.057 309.433 577.299 310.054C579.793 310.745 581.596 311.775 582.411 312.268C584.121 313.302 585.376 314.403 585.866 314.84C587.035 315.882 588.153 317.06 588.905 317.866C592.637 321.864 596.439 326.411 601.943 331.915C603.151 333.123 604.322 334.244 605.443 335.28C605.098 334.551 604.717 333.773 604.279 332.952C599.21 323.449 590.475 313.962 583.959 308.749C582.609 307.669 580.546 305.831 578.764 303.144C576.917 300.36 574.679 295.564 575.29 289.402C575.915 283.114 579.167 278.738 581.79 276.261C584.241 273.947 586.761 272.654 588.227 271.987C591.141 270.661 594.148 269.948 595.93 269.556C597.965 269.109 600.218 268.713 602.142 268.373C606.2 267.655 609.802 267.005 613.127 266.108L613.639 262.954C613.4 260.587 613.18 257.648 613.344 254.88C613.606 250.453 615.21 239.343 626.345 233.447L641.59 225.373C640.772 223.321 639.736 219.944 640.01 215.77C640.359 210.46 642.762 205.085 647.387 201.228C651.389 197.891 655.619 196.89 657.962 196.538C662.417 195.87 666.406 196.655 668.243 197.057C674.199 198.36 681.801 201.515 687.936 204.363L693.47 207.031L700.597 210.594L703.226 218.118C706.57 227.67 711.997 239.734 717.551 247.644C719.711 244.463 720.768 242.204 721.281 240.824C718.061 235.4 715.581 230.959 713.847 227.427C712.813 225.321 711.762 222.975 711.006 220.632C710.63 219.465 710.154 217.791 709.899 215.828C709.684 214.163 709.362 210.433 710.833 206.129C712.656 200.799 716.969 195.616 723.693 193.423C728.391 191.891 732.465 192.457 734.71 192.968C731.566 190.509 728.126 188.211 724.403 186.18L743.225 151.671ZM558.227 346.381C560.093 351.955 562.454 357.808 564.99 362.65C564.986 362.404 564.972 362.137 564.926 361.831C564.72 360.46 564.076 358.343 562.386 354.704C561.096 351.926 559.843 349.509 558.227 346.381ZM653.503 242.833C657.302 251.381 664.126 262.947 671.679 270.458C675.441 274.199 678.283 275.827 679.907 276.357C680.82 276.655 680.982 276.613 681.685 276.223C681.97 276.065 682.204 275.908 682.408 275.781C682.061 274.744 681.339 273.017 679.798 270.503C673.722 260.59 662.526 249.878 651.936 239.314L653.503 242.833Z" fill="black"/>
<path fill-rule="evenodd" clip-rule="evenodd" d="M594.031 91.9478C527.601 85.0689 440.403 150.779 363.098 208.889C323.79 238.959 286.12 267.195 253.953 283.574C237.836 291.828 222.179 299.231 207.307 306.307C166.427 325.961 131.574 342.274 114.934 362.321C105.533 373.237 98.1659 385.752 93.1833 399.27C90.7005 406.485 89.1805 413.997 88.6629 421.61C121.223 411.324 153.783 399.204 186.212 385.119C226.713 367.948 266.098 348.255 304.136 326.157C418.194 259.268 500.675 181.046 593.376 92.5374L594.031 91.9478ZM710.71 79.9588C716.531 81.6182 721.454 85.5218 724.397 90.811C727.339 96.1001 728.06 102.342 726.401 108.162C724.741 113.983 720.838 118.906 715.549 121.849C710.259 124.791 704.018 125.512 698.197 123.853C694.594 122.804 693.284 128.897 691.646 136.169C684.439 170.957 675.595 212.754 598.945 203.058C592.394 202.272 591.673 207.513 590.69 213.737C585.187 246.493 578.701 285.801 494.189 281.084C491.765 281.084 491.241 286.522 490.652 293.008C487.572 328.909 483.38 372.016 391.858 366.972C381.834 366.382 373.973 365.465 367.618 364.745C361.263 364.024 360.084 361.6 358.708 362.583C352.602 371.324 347.337 380.625 342.985 390.36C339.578 396.911 335.582 404.511 329.882 414.731C314.618 443.098 285.202 442.247 257.818 441.395C250.29 440.613 242.693 440.811 235.216 441.984L232.857 443.36C229.039 448.15 225.538 453.183 222.375 458.428C220.874 461.031 218.875 463.312 216.492 465.142C214.109 466.972 211.389 468.315 208.487 469.093C205.585 469.872 202.559 470.071 199.58 469.68C196.601 469.289 193.728 468.315 191.126 466.814C188.523 465.313 186.242 463.314 184.412 460.931C182.582 458.548 181.239 455.828 180.461 452.926C179.682 450.024 179.482 446.997 179.874 444.018C180.265 441.039 181.239 438.167 182.74 435.564C187.307 428.035 192.362 420.813 197.873 413.945C202.259 408.061 208.205 403.522 215.038 400.842C228.14 394.291 243.274 395.012 259.194 395.47C273.082 395.929 287.954 396.387 289.854 392.719C294.44 384.333 298.764 376.013 302.498 368.872C315.207 344.501 321.366 332.84 331.848 325.24C344.95 316.003 354.253 317.116 372.597 319.213C378.297 319.802 385.7 320.654 394.282 321.178C441.844 323.864 443.613 304.603 445.054 288.422C447.806 258.351 450.164 232.604 496.482 235.028C540.311 237.321 543.193 220.091 545.617 205.744C550.531 176.132 554.723 150.975 604.579 157.264C639.497 161.719 643.887 142.393 646.966 126.277C653.976 93.0615 660.069 65.1529 710.579 79.5658L710.71 79.9588ZM635.239 71.3111C706.583 -14.5111 806.491 23.29 786.443 142.72C794.736 147.647 802.026 154.093 807.932 161.719C833.809 193.821 837.675 229.329 831.32 264.64C825.358 297.921 810.552 330.154 797.122 358.652C775.526 405.472 747.427 449.01 713.658 487.975C682.653 523.467 646.739 554.352 607.003 579.693C573.168 603.385 537.275 623.995 499.758 641.276C460.961 659.118 420.316 672.629 378.559 681.566C340.302 690.607 300.875 693.657 261.683 690.607C220.934 686.217 182.412 671.477 152.407 638.655L151.818 638.065C149.394 635.314 147.035 632.497 144.873 629.614C139.625 622.579 135.227 614.949 131.771 606.881C31.0114 597.12 -1.7452 507.76 60.8854 452.794C59.195 450.552 58.1118 447.912 57.7407 445.129C54.9545 426.2 56.7518 406.878 62.9818 388.788C69.1784 371.669 78.4352 355.819 90.3008 342.011C111.462 316.527 149.263 298.576 193.615 277.481C208.355 270.471 223.882 263.134 239.474 255.141C269.283 239.876 305.446 212.623 344.295 183.47C437.979 112.715 545.617 31.3481 631.177 69.0181C632.633 69.5872 634 70.3591 635.239 71.3111ZM562.454 320.72C544.372 335.198 525.767 348.956 506.833 362.058C434.357 413.454 354.082 452.851 269.086 478.737C234.037 490.333 206.259 499.44 183.329 516.669C181.299 518.176 179.202 519.945 177.106 521.845C164.725 532.722 157.007 547.948 155.552 564.363C154.61 581.067 159.806 597.54 170.161 610.681C171.668 612.712 173.371 614.743 175.206 616.774L175.73 617.298C199.773 643.503 231.285 655.426 264.893 659.03C300.715 661.745 336.741 658.871 371.68 650.513C411.14 642.123 449.548 629.379 486.197 612.515C521.995 595.947 556.241 576.215 588.528 553.553L589.707 552.702C626.898 529.037 660.519 500.182 689.549 467.011C721.339 430.207 747.802 389.123 768.165 344.96C780.809 317.968 794.829 287.832 799.939 258.941C804.787 232.08 802.036 205.286 783.102 181.701C779.14 176.465 774.03 172.207 768.165 169.253C762.796 166.807 756.866 165.856 751.001 166.502C714.051 169.646 678.543 208.037 647.359 241.776C636.484 253.503 626.133 264.771 615.782 274.533C598.312 290.955 580.536 306.241 562.454 320.392V320.72Z" fill="black"/>
<path d="M22.4353 548.898C4.00336 480.109 81.9438 414.596 176.938 388.391L196.045 473.558C125.291 499.763 125.619 579.471 134.354 611.135C104.873 627.514 40.8672 617.687 22.4353 548.898Z" fill="white"/>
<path d="M746.903 28.0683C710.215 7.10407 658.46 34.6191 635.53 70.6516L743.627 142.716C761.971 134.855 779.659 139.441 786.211 142.716C796.037 116.511 792.762 54.2735 746.903 28.0683Z" fill="white"/>
<path d="M179.82 435.087C181.166 424.316 190.987 416.678 201.758 418.024C229.542 421.497 247.921 437.036 258.999 454.235C269.7 470.852 273.929 489.356 274.628 501.95C275.229 512.787 266.931 522.057 256.094 522.659C245.257 523.26 235.987 514.962 235.384 504.125C234.992 497.066 232.339 485.435 225.954 475.521C219.943 466.188 211.026 458.793 196.883 457.025C186.112 455.678 178.474 445.858 179.82 435.087Z" fill="#F1F1F1"/>
<path d="M153.734 371.529C151.944 360.823 159.17 350.695 169.876 348.904C197.493 344.285 219.548 353.918 235.082 367.231C250.089 380.093 259.433 396.614 263.706 408.482C267.381 418.694 262.081 429.951 251.869 433.628C241.657 437.303 230.4 432.003 226.724 421.791C224.328 415.139 218.46 404.753 209.506 397.078C201.077 389.854 190.417 385.319 176.359 387.67C165.653 389.46 155.525 382.235 153.734 371.529Z" fill="#F1F1F1"/>
<path d="M271.655 417.386C269.864 406.68 277.09 396.552 287.796 394.762C315.413 390.143 337.469 399.776 353.003 413.089C368.009 425.95 377.354 442.471 381.626 454.34C385.301 464.552 380.002 475.809 369.789 479.485C359.577 483.16 348.32 477.86 344.644 467.648C342.249 460.996 336.38 450.61 327.426 442.936C318.997 435.712 308.338 431.176 294.279 433.527C283.573 435.318 273.445 428.092 271.655 417.386Z" fill="#F1F1F1"/>
<path d="M232.351 332.218C230.561 321.512 237.787 311.384 248.493 309.594C276.11 304.975 298.166 314.608 313.699 327.921C328.706 340.782 338.05 357.304 342.323 369.172C345.998 379.384 340.698 390.641 330.486 394.317C320.274 397.992 309.017 392.692 305.341 382.48C302.945 375.828 297.077 365.442 288.123 357.768C279.694 350.544 269.034 346.008 254.976 348.359C244.27 350.15 234.142 342.924 232.351 332.218Z" fill="#F1F1F1"/>
<path d="M350.274 397.731C348.483 387.025 355.709 376.897 366.415 375.106C394.032 370.487 416.088 380.12 431.622 393.433C446.629 406.295 455.973 422.816 460.245 434.684C463.921 444.897 458.621 456.153 448.409 459.83C438.196 463.505 426.939 458.205 423.263 447.993C420.868 441.341 414.999 430.955 406.045 423.281C397.616 416.057 386.957 411.521 372.898 413.872C362.192 415.663 352.064 408.437 350.274 397.731Z" fill="#F1F1F1"/>
<path d="M306.829 374.086C305.038 363.38 312.264 353.252 322.97 351.462C350.587 346.843 372.643 356.476 388.177 369.789C403.184 382.65 412.528 399.172 416.8 411.04C420.475 421.252 415.176 432.509 404.963 436.185C394.751 439.86 383.494 434.561 379.818 424.348C377.423 417.696 371.554 407.311 362.6 399.636C354.171 392.412 343.512 387.876 329.453 390.228C318.747 392.018 308.619 384.792 306.829 374.086Z" fill="#F1F1F1"/>
<path d="M310.969 266.706C309.178 256 316.404 245.872 327.11 244.081C354.727 239.463 376.783 249.096 392.316 262.408C407.323 275.27 416.668 291.791 420.94 303.659C424.615 313.872 419.316 325.128 409.103 328.805C398.891 332.48 387.634 327.18 383.958 316.968C381.563 310.316 375.694 299.93 366.74 292.256C358.311 285.032 347.652 280.496 333.593 282.847C322.887 284.638 312.759 277.412 310.969 266.706Z" fill="#F1F1F1"/>
<path d="M422.34 319.118C420.55 308.412 427.776 298.283 438.482 296.493C466.099 291.874 488.154 301.507 503.688 314.82C518.695 327.682 528.039 344.203 532.312 356.071C535.987 366.283 530.687 377.54 520.475 381.217C510.263 384.892 499.006 379.592 495.329 369.38C492.934 362.728 487.066 352.342 478.112 344.667C469.683 337.443 459.023 332.908 444.965 335.259C434.259 337.049 424.131 329.823 422.34 319.118Z" fill="#F1F1F1"/>
<path d="M383.028 227.403C381.237 216.697 388.463 206.569 399.169 204.778C426.787 200.159 448.842 209.792 464.376 223.105C479.383 235.967 488.727 252.488 493 264.356C496.675 274.568 491.375 285.825 481.163 289.502C470.95 293.177 459.694 287.877 456.017 277.665C453.622 271.013 447.753 260.627 438.8 252.953C430.37 245.728 419.711 241.193 405.653 243.544C394.947 245.334 384.818 238.109 383.028 227.403Z" fill="#F1F1F1"/>
<path d="M520.605 292.915C518.815 282.209 526.041 272.081 536.747 270.29C564.364 265.672 586.419 275.305 601.953 288.617C616.96 301.479 626.304 318 630.577 329.868C634.252 340.081 628.952 351.337 618.74 355.014C608.528 358.689 597.271 353.389 593.595 343.177C591.199 336.525 585.331 326.139 576.377 318.465C567.948 311.241 557.288 306.705 543.23 309.056C532.524 310.847 522.396 303.621 520.605 292.915Z" fill="#F1F1F1"/>
<path d="M468.194 188.092C466.403 177.386 473.629 167.258 484.335 165.468C511.953 160.849 534.008 170.482 549.542 183.795C564.549 196.656 573.893 213.178 578.166 225.046C581.841 235.258 576.541 246.515 566.329 250.191C556.116 253.866 544.86 248.566 541.183 238.354C538.788 231.702 532.919 221.316 523.966 213.642C515.536 206.418 504.877 201.882 490.819 204.233C480.113 206.024 469.984 198.798 468.194 188.092Z" fill="#F1F1F1"/>
<path d="M592.674 227.403C590.883 216.697 598.109 206.569 608.815 204.778C636.433 200.159 658.488 209.792 674.022 223.105C689.029 235.967 698.373 252.488 702.646 264.356C706.321 274.568 701.021 285.825 690.809 289.502C680.596 293.177 669.34 287.877 665.663 277.665C663.268 271.013 657.399 260.627 648.446 252.953C640.016 245.728 629.357 241.193 615.299 243.544C604.593 245.334 594.464 238.109 592.674 227.403Z" fill="#F1F1F1"/>
<path d="M664.733 174.991C662.943 164.285 670.169 154.157 680.875 152.366C708.492 147.748 730.547 157.381 746.081 170.694C761.088 183.555 770.432 200.076 774.705 211.945C778.38 222.157 773.08 233.414 762.868 237.09C752.656 240.765 741.399 235.465 737.723 225.253C735.327 218.601 729.459 208.215 720.505 200.541C712.076 193.317 701.416 188.781 687.358 191.132C676.652 192.923 666.524 185.697 664.733 174.991Z" fill="#F1F1F1"/>
<path d="M242.872 425.326C249.61 416.816 261.975 415.377 270.485 422.114L349.101 484.352C357.611 491.089 359.05 503.454 352.313 511.965C345.575 520.475 333.21 521.913 324.7 515.176L246.084 452.939C237.574 446.202 236.135 433.837 242.872 425.326Z" fill="#F0F0F0"/>
<path d="M288.733 261.545C295.471 253.035 307.836 251.596 316.346 258.333L394.962 320.571C403.472 327.308 404.911 339.673 398.174 348.184C391.436 356.694 379.071 358.132 370.561 351.395L291.945 289.158C283.435 282.42 281.996 270.055 288.733 261.545Z" fill="#F1F1F1"/>
<path d="M413.204 156.722C419.941 148.212 432.306 146.773 440.817 153.51L519.433 215.748C527.943 222.485 529.381 234.85 522.644 243.361C515.907 251.871 503.542 253.309 495.032 246.572L416.416 184.335C407.905 177.598 406.467 165.233 413.204 156.722Z" fill="#F1F1F1"/>
<path d="M524.577 91.2095C531.315 82.6992 543.68 81.2608 552.19 87.9978L630.806 150.235C639.316 156.973 640.755 169.338 634.018 177.848C627.28 186.358 614.915 187.797 606.405 181.06L527.789 118.822C519.279 112.085 517.84 99.7199 524.577 91.2095Z" fill="#F1F1F1"/>
<path d="M351.004 306.527C361.844 307.083 370.183 316.32 369.628 327.159L363.077 454.91C362.521 465.75 353.283 474.089 342.444 473.534C331.604 472.978 323.265 463.741 323.82 452.901L330.371 325.151C330.927 314.311 340.165 305.972 351.004 306.527Z" fill="#F0F0F0"/>
<path d="M429.621 241.014C440.461 241.57 448.8 250.807 448.245 261.647L441.694 389.397C441.138 400.237 431.9 408.576 421.061 408.021C410.221 407.465 401.882 398.228 402.437 387.388L408.988 259.638C409.544 248.798 418.782 240.459 429.621 241.014Z" fill="#F0F0F0"/>
<path d="M534.444 175.502C545.284 176.058 553.623 185.295 553.068 196.135L546.517 323.885C545.961 334.725 536.723 343.064 525.884 342.509C515.044 341.953 506.705 332.716 507.26 321.876L513.811 194.126C514.367 183.286 523.605 174.947 534.444 175.502Z" fill="#F0F0F0"/>
<path d="M491.797 191.658C502.365 189.181 512.942 195.738 515.42 206.305L544.618 330.846C547.096 341.414 540.538 351.991 529.972 354.469C519.404 356.947 508.827 350.389 506.349 339.823L477.151 215.281C474.673 204.714 481.23 194.137 491.797 191.658Z" fill="#F0F0F0"/>
<path d="M580.298 136.191C591.137 136.747 599.476 145.985 598.922 156.824L592.37 284.575C591.814 295.414 582.577 303.753 571.737 303.199C560.898 302.643 552.559 293.405 553.114 282.566L559.665 154.815C560.221 143.975 569.458 135.636 580.298 136.191Z" fill="#F0F0F0"/>
<path d="M520.596 163.553C528.592 156.213 541.025 156.743 548.366 164.738L634.87 258.972C642.21 266.968 641.68 279.402 633.685 286.742C625.69 294.082 613.256 293.552 605.916 285.557L519.411 191.323C512.072 183.327 512.601 170.894 520.596 163.553Z" fill="#F0F0F0"/>
<path d="M119.955 373.777C159.466 357.973 192.151 366.414 215.819 384.647C238.249 401.927 251.584 427.063 257.341 444.972C260.662 455.306 254.975 466.378 244.641 469.699C234.307 473.02 223.235 467.333 219.914 457C215.843 444.337 206.247 426.893 191.828 415.785C178.645 405.63 160.557 399.876 134.555 410.277C124.477 414.308 113.04 409.402 109.008 399.324C104.978 389.246 109.877 377.809 119.955 373.777Z" fill="white"/>
<path d="M148.569 389.436C188.08 373.632 220.765 382.072 244.434 400.306C266.863 417.586 280.199 442.721 285.955 460.63C289.277 470.964 283.589 482.036 273.256 485.358C262.922 488.679 251.85 482.992 248.528 472.658C244.457 459.995 234.861 442.552 220.442 431.444C207.26 421.289 189.171 415.535 163.169 425.935C153.091 429.966 141.654 425.06 137.623 414.982C133.592 404.904 138.492 393.467 148.569 389.436Z" fill="white"/>
<path d="M91.0263 367.23C130.537 351.426 163.222 359.866 186.89 378.1C209.32 395.38 222.655 420.515 228.412 438.424C231.734 448.758 226.046 459.83 215.712 463.152C205.379 466.473 194.307 460.786 190.985 450.452C186.914 437.789 177.318 420.346 162.899 409.238C149.716 399.083 131.628 393.329 105.626 403.729C95.5479 407.76 84.1109 402.854 80.0797 392.776C76.0489 382.698 80.9485 371.261 91.0263 367.23Z" fill="white"/>
<path d="M189.291 288.609C228.802 272.805 261.487 281.246 285.156 299.479C307.585 316.759 320.92 341.895 326.677 359.804C329.999 370.138 324.311 381.21 313.978 384.531C303.644 387.853 292.572 382.165 289.25 371.832C285.179 359.169 275.583 341.725 261.164 330.617C247.981 320.462 229.893 314.708 203.891 325.109C193.813 329.14 182.376 324.234 178.345 314.156C174.314 304.078 179.214 292.641 189.291 288.609Z" fill="white"/>
<path d="M264.092 367.23C303.603 351.426 336.288 359.866 359.956 378.1C382.386 395.38 395.721 420.515 401.478 438.424C404.799 448.758 399.112 459.83 388.778 463.152C378.444 466.473 367.372 460.786 364.051 450.452C359.98 437.789 350.384 420.346 335.964 409.238C322.782 399.083 304.694 393.329 278.692 403.729C268.614 407.76 257.177 402.854 253.145 392.776C249.115 382.698 254.014 371.261 264.092 367.23Z" fill="white"/>
<path d="M290.298 268.962C329.808 253.157 362.493 261.598 386.162 279.831C408.591 297.111 421.927 322.247 427.683 340.156C431.005 350.49 425.318 361.562 414.984 364.883C404.65 368.205 393.578 362.517 390.256 352.184C386.186 339.521 376.589 322.077 362.17 310.969C348.988 300.814 330.899 295.06 304.897 305.461C294.819 309.492 283.382 304.586 279.351 294.508C275.32 284.43 280.22 272.993 290.298 268.962Z" fill="white"/>
<path d="M447.523 282.063C487.034 266.258 519.719 274.699 543.387 292.932C565.817 310.212 579.152 335.348 584.909 353.257C588.23 363.591 582.543 374.663 572.209 377.984C561.875 381.306 550.803 375.618 547.482 365.285C543.411 352.622 533.815 335.178 519.396 324.07C506.213 313.915 488.125 308.161 462.123 318.562C452.045 322.593 440.608 317.687 436.577 307.609C432.546 297.531 437.445 286.094 447.523 282.063Z" fill="white"/>
<path d="M434.425 170.686C473.936 154.881 506.621 163.322 530.29 181.555C552.719 198.835 566.054 223.971 571.811 241.88C575.133 252.214 569.445 263.286 559.112 266.607C548.778 269.929 537.706 264.242 534.384 253.908C530.313 241.245 520.717 223.801 506.298 212.693C493.115 202.538 475.027 196.784 449.025 207.185C438.947 211.216 427.51 206.31 423.479 196.232C419.448 186.154 424.348 174.717 434.425 170.686Z" fill="white"/>
<path d="M604.759 170.686C644.27 154.881 676.955 163.322 700.623 181.555C723.053 198.835 736.388 223.971 742.145 241.88C745.466 252.214 739.779 263.286 729.445 266.607C719.112 269.929 708.039 264.242 704.718 253.908C700.647 241.245 691.051 223.801 676.632 212.693C663.449 202.538 645.361 196.784 619.359 207.185C609.281 211.216 597.844 206.31 593.813 196.232C589.782 186.154 594.681 174.717 604.759 170.686Z" fill="white"/>
<path d="M508.894 166.696C548.404 150.892 581.089 159.333 604.758 177.566C627.187 194.846 640.523 219.982 646.279 237.891C649.601 248.225 643.914 259.297 633.58 262.618C623.246 265.939 612.174 260.252 608.852 249.919C604.782 237.256 595.185 219.812 580.766 208.704C567.584 198.549 549.495 192.795 523.493 203.196C513.415 207.227 501.978 202.321 497.947 192.243C493.916 182.165 498.816 170.728 508.894 166.696Z" fill="white"/>
<path d="M535.099 140.494C574.61 124.69 607.295 133.13 630.963 151.364C653.393 168.644 666.728 193.78 672.485 211.689C675.807 222.022 670.119 233.094 659.785 236.416C649.452 239.737 638.38 234.05 635.058 223.716C630.987 211.053 621.391 193.61 606.972 182.502C593.789 172.347 575.701 166.593 549.699 176.993C539.621 181.024 528.184 176.119 524.153 166.041C520.122 155.963 525.022 144.526 535.099 140.494Z" fill="white"/>
<path d="M469.589 199.453C509.099 183.648 541.784 192.089 565.453 210.323C587.882 227.602 601.218 252.738 606.974 270.647C610.296 280.981 604.609 292.053 594.275 295.374C583.941 298.696 572.869 293.009 569.548 282.675C565.477 270.012 555.88 252.569 541.461 241.46C528.279 231.305 510.19 225.551 484.188 235.952C474.11 239.983 462.673 235.077 458.642 224.999C454.611 214.921 459.511 203.484 469.589 199.453Z" fill="white"/>
<path d="M364.766 278.066C404.276 262.262 436.961 270.702 460.63 288.936C483.059 306.216 496.395 331.351 502.151 349.26C505.473 359.594 499.786 370.666 489.452 373.988C479.118 377.309 468.046 371.622 464.725 361.288C460.654 348.625 451.057 331.182 436.638 320.074C423.456 309.919 405.367 304.164 379.365 314.565C369.287 318.596 357.85 313.69 353.819 303.612C349.788 293.534 354.688 282.097 364.766 278.066Z" fill="white"/>
<path d="M332.011 310.822C371.522 295.018 404.207 303.459 427.876 321.692C450.305 338.972 463.64 364.108 469.397 382.017C472.719 392.351 467.031 403.423 456.697 406.744C446.364 410.065 435.292 404.378 431.97 394.045C427.899 381.382 418.303 363.938 403.884 352.83C390.701 342.675 372.613 336.921 346.611 347.322C336.533 351.353 325.096 346.447 321.065 336.369C317.034 326.291 321.934 314.854 332.011 310.822Z" fill="white"/>
<path d="M467.18 111.727C506.691 95.9228 539.376 104.363 563.044 122.597C585.474 139.877 598.809 165.012 604.566 182.922C607.887 193.255 602.2 204.327 591.866 207.649C581.532 210.97 570.46 205.283 567.139 194.949C563.068 182.286 553.472 164.843 539.053 153.735C525.87 143.58 507.782 137.826 481.78 148.226C471.702 152.257 460.265 147.352 456.234 137.273C452.203 127.195 457.102 115.758 467.18 111.727Z" fill="white"/>
<path d="M396.305 144C436.94 127.746 470.838 136.405 495.381 155.311C518.479 173.106 532.125 198.889 538.022 217.235C541.895 229.29 535.265 242.201 523.211 246.076C511.155 249.952 498.239 243.322 494.363 231.266C490.434 219.04 481.148 202.239 467.397 191.644C455.088 182.162 438.212 176.627 413.336 186.577C401.578 191.28 388.232 185.559 383.528 173.801C378.827 162.044 384.548 148.703 396.305 144Z" fill="#F3F3F3"/>
<path d="M195.203 281.277C212.239 277.018 229.494 286.948 234.504 303.586C234.804 304.038 235.639 305.236 237.466 307.188C240.886 310.84 245.951 315.195 252.36 319.907C265.149 329.307 280.177 337.877 289.864 342.721C306.043 350.812 312.599 370.487 304.509 386.667C296.417 402.846 276.743 409.402 260.562 401.312C248.412 395.236 230.031 384.803 213.558 372.694C205.336 366.651 196.809 359.621 189.637 351.959C183.035 344.906 174.705 334.335 171.371 321.001C166.984 303.45 177.653 285.665 195.203 281.277Z" fill="#F3F3F3"/>
<path d="M371.439 333.294C381.969 330.662 392.638 337.063 395.271 347.593C395.265 347.571 395.464 348.313 396.454 349.858C397.42 351.365 398.885 353.242 400.952 355.45C405.122 359.904 410.884 364.796 417.656 369.774C431.181 379.716 446.881 388.651 457.06 393.74C466.769 398.595 470.705 410.403 465.851 420.112C460.996 429.821 449.188 433.757 439.479 428.902C427.822 423.074 410.112 413.011 394.375 401.443C386.516 395.666 378.679 389.174 372.258 382.314C366.178 375.819 359.664 367.223 357.14 357.126C354.507 346.595 360.908 335.927 371.439 333.294Z" fill="#F3F3F3"/>
<path d="M381.813 189.168C392.344 186.535 403.012 192.936 405.645 203.467C405.639 203.445 405.838 204.186 406.828 205.732C407.794 207.238 409.26 209.115 411.326 211.323C415.496 215.778 421.259 220.67 428.031 225.648C441.555 235.589 457.255 244.524 467.435 249.614C477.143 254.468 481.079 266.277 476.225 275.985C471.371 285.694 459.562 289.63 449.853 284.776C438.196 278.947 420.486 268.884 404.749 257.317C396.89 251.54 389.053 245.047 382.632 238.187C376.552 231.693 370.039 223.097 367.514 212.999C364.882 202.469 371.283 191.8 381.813 189.168Z" fill="#F3F3F3"/>
<path d="M495.919 221.925C506.449 219.292 517.118 225.693 519.75 236.224C519.745 236.202 519.944 236.943 520.934 238.488C521.9 239.995 523.365 241.872 525.432 244.08C529.601 248.535 535.364 253.427 542.136 258.405C555.661 268.346 571.361 277.281 581.54 282.371C591.249 287.225 595.185 299.034 590.331 308.742C585.476 318.451 573.668 322.387 563.959 317.533C552.301 311.704 534.592 301.641 518.855 290.074C510.996 284.297 503.159 277.804 496.738 270.944C490.658 264.449 484.144 255.854 481.62 245.756C478.987 235.226 485.388 224.557 495.919 221.925Z" fill="#F3F3F3"/>
<path d="M237.886 341.021C277.397 325.217 310.082 333.657 333.751 351.891C356.18 369.171 369.515 394.306 375.272 412.215C378.594 422.549 372.906 433.621 362.572 436.943C352.239 440.264 341.167 434.577 337.845 424.243C333.774 411.58 324.178 394.137 309.759 383.029C296.576 372.874 278.488 367.12 252.486 377.52C242.408 381.551 230.971 376.645 226.94 366.567C222.909 356.489 227.809 345.052 237.886 341.021Z" fill="white"/>
<path d="M264.092 242.752C303.603 226.948 336.288 235.388 359.956 253.622C382.386 270.902 395.721 296.037 401.478 313.946C404.799 324.28 399.112 335.352 388.778 338.674C378.444 341.995 367.372 336.308 364.051 325.974C359.98 313.311 350.384 295.868 335.964 284.76C322.782 274.605 304.694 268.851 278.692 279.251C268.614 283.282 257.177 278.376 253.145 268.298C249.115 258.22 254.014 246.783 264.092 242.752Z" fill="white"/>
<path d="M355.809 183.794C395.319 167.99 428.004 176.43 451.673 194.664C474.102 211.944 487.438 237.079 493.194 254.988C496.516 265.322 490.828 276.394 480.495 279.716C470.161 283.037 459.089 277.35 455.767 267.016C451.696 254.353 442.1 236.91 427.681 225.802C414.499 215.647 396.41 209.892 370.408 220.293C360.33 224.324 348.893 219.418 344.862 209.34C340.831 199.262 345.731 187.825 355.809 183.794Z" fill="white"/>
<path d="M473.729 151.037C513.239 135.233 545.924 143.673 569.593 161.907C592.022 179.187 605.358 204.323 611.114 222.232C614.436 232.565 608.749 243.637 598.415 246.959C588.081 250.28 577.009 244.593 573.687 234.259C569.617 221.596 560.02 204.153 545.601 193.045C532.419 182.89 514.33 177.136 488.328 187.536C478.25 191.567 466.813 186.662 462.782 176.583C458.751 166.506 463.651 155.069 473.729 151.037Z" fill="white"/>
<path d="M476.137 133.94C515.648 118.136 548.333 126.576 572.002 144.81C594.431 162.09 607.766 187.225 613.523 205.134C616.845 215.468 611.157 226.54 600.823 229.862C590.49 233.183 579.418 227.496 576.096 217.162C572.025 204.499 562.429 187.056 548.01 175.948C534.827 165.793 516.739 160.038 490.737 170.439C480.659 174.47 469.222 169.564 465.191 159.486C461.16 149.408 466.06 137.971 476.137 133.94Z" fill="white"/>
<path d="M168.351 320.193C178.881 317.56 189.55 323.962 192.182 334.492C192.177 334.47 192.376 335.212 193.366 336.757C194.332 338.264 195.797 340.141 197.864 342.349C202.033 346.803 207.796 351.695 214.568 356.673C228.093 366.615 243.793 375.55 253.972 380.639C263.681 385.494 267.617 397.302 262.763 407.011C257.908 416.719 246.1 420.656 236.391 415.801C224.734 409.973 207.024 399.91 191.287 388.342C183.428 382.565 175.591 376.073 169.17 369.213C163.09 362.718 156.576 354.122 154.052 344.025C151.419 333.494 157.82 322.826 168.351 320.193Z" fill="#F3F3F3"/>
<path d="M145.971 320.193C156.501 317.56 167.17 323.962 169.802 334.492C169.797 334.47 169.996 335.212 170.986 336.757C171.952 338.264 173.417 340.141 175.484 342.349C179.653 346.803 185.416 351.695 192.188 356.673C205.713 366.615 221.413 375.55 231.592 380.639C241.301 385.494 245.237 397.302 240.383 407.011C235.528 416.719 223.72 420.656 214.011 415.801C202.353 409.973 184.644 399.91 168.907 388.342C161.048 382.565 153.211 376.073 146.79 369.213C140.71 362.718 134.196 354.122 131.672 344.025C129.039 333.494 135.44 322.826 145.971 320.193Z" fill="#F3F3F3"/>
<path d="M126.314 333.294C136.844 330.662 147.513 337.063 150.145 347.593C150.14 347.571 150.339 348.313 151.329 349.858C152.295 351.365 153.76 353.242 155.827 355.45C159.996 359.904 165.759 364.796 172.531 369.774C186.056 379.716 201.756 388.651 211.935 393.74C221.644 398.595 225.58 410.403 220.726 420.112C215.871 429.821 204.063 433.757 194.354 428.902C182.696 423.074 164.987 413.011 149.25 401.443C141.391 395.666 133.554 389.174 127.133 382.314C121.053 375.819 114.539 367.223 112.015 357.126C109.382 346.595 115.783 335.927 126.314 333.294Z" fill="#F3F3F3"/>
<path d="M466.186 199.09C478.472 196.02 490.92 203.49 493.991 215.775C493.885 215.35 494.505 217.506 498.885 222.186C502.868 226.44 508.454 231.196 515.136 236.107C528.477 245.914 544.009 254.757 554.066 259.786C565.393 265.449 569.985 279.226 564.322 290.552C558.659 301.879 544.882 306.471 533.555 300.808C521.774 294.918 503.892 284.764 487.971 273.061C480.022 267.218 472.015 260.589 465.406 253.529C459.196 246.894 452.228 237.802 449.501 226.895C446.431 214.61 453.901 202.161 466.186 199.09Z" fill="#F3F3F3"/>
<path d="M528.675 136.757C539.205 134.124 549.874 140.525 552.507 151.056C552.501 151.034 552.7 151.775 553.69 153.32C554.656 154.827 556.121 156.704 558.188 158.912C562.358 163.367 568.121 168.259 574.892 173.237C588.417 183.178 604.117 192.113 614.296 197.203C624.005 202.057 627.941 213.866 623.087 223.574C618.233 233.283 606.424 237.219 596.715 232.365C585.058 226.536 567.348 216.473 551.611 204.906C543.752 199.129 535.915 192.636 529.494 185.776C523.414 179.281 516.9 170.686 514.376 160.588C511.743 150.058 518.145 139.389 528.675 136.757Z" fill="#F3F3F3"/>
<path d="M450.056 326.747C460.587 324.114 471.255 330.515 473.888 341.046C473.882 341.024 474.081 341.765 475.071 343.311C476.037 344.817 477.502 346.694 479.569 348.902C483.739 353.357 489.502 358.249 496.274 363.227C509.798 373.168 525.498 382.103 535.677 387.193C545.386 392.047 549.322 403.856 544.468 413.565C539.614 423.273 527.805 427.209 518.096 422.355C506.439 416.526 488.729 406.464 472.992 394.896C465.133 389.119 457.296 382.626 450.875 375.767C444.795 369.272 438.281 360.676 435.757 350.579C433.124 340.048 439.526 329.379 450.056 326.747Z" fill="#F3F3F3"/>
<path d="M246.968 379.151C257.498 376.518 268.167 382.92 270.8 393.45C270.794 393.428 270.993 394.17 271.983 395.715C272.949 397.222 274.414 399.099 276.481 401.307C280.651 405.761 286.413 410.653 293.185 415.631C306.71 425.573 322.41 434.508 332.589 439.597C342.298 444.452 346.234 456.26 341.38 465.969C336.526 475.677 324.717 479.614 315.008 474.759C303.351 468.931 285.641 458.868 269.904 447.3C262.045 441.523 254.208 435.031 247.787 428.171C241.707 421.676 235.193 413.08 232.669 402.983C230.036 392.452 236.437 381.784 246.968 379.151Z" fill="#F3F3F3"/>
<path d="M263.098 264.603C275.383 261.532 287.832 269.003 290.903 281.288C290.797 280.863 291.417 283.019 295.797 287.699C299.779 291.953 305.366 296.709 312.048 301.62C325.389 311.427 340.921 320.27 350.978 325.298C362.305 330.962 366.897 344.738 361.234 356.065C355.57 367.392 341.794 371.984 330.467 366.321C318.686 360.43 300.804 350.277 284.883 338.574C276.933 332.73 268.927 326.101 262.318 319.041C256.107 312.407 249.14 303.314 246.413 292.407C243.343 280.122 250.813 267.674 263.098 264.603Z" fill="#F3F3F3"/>
<path d="M364.89 215.37C375.421 212.737 386.089 219.138 388.722 229.669C388.716 229.647 388.915 230.389 389.905 231.934C390.871 233.44 392.336 235.318 394.403 237.525C398.573 241.98 404.336 246.872 411.108 251.85C424.632 261.791 440.332 270.726 450.511 275.816C460.22 280.67 464.156 292.479 459.302 302.188C454.448 311.896 442.639 315.832 432.93 310.978C421.273 305.149 403.563 295.087 387.826 283.519C379.967 277.742 372.13 271.249 365.709 264.39C359.629 257.895 353.115 249.299 350.591 239.202C347.958 228.671 354.36 218.002 364.89 215.37Z" fill="#F3F3F3"/>
<path d="M335.961 208.823C346.492 206.191 357.16 212.592 359.793 223.122C359.788 223.1 359.986 223.842 360.977 225.387C361.942 226.894 363.408 228.771 365.474 230.979C369.644 235.433 375.407 240.326 382.179 245.304C395.704 255.245 411.403 264.18 421.583 269.27C431.291 274.124 435.228 285.933 430.373 295.641C425.519 305.35 413.71 309.286 404.002 304.432C392.344 298.603 374.634 288.54 358.897 276.973C351.039 271.196 343.202 264.703 336.78 257.843C330.701 251.348 324.187 242.753 321.662 232.655C319.03 222.125 325.431 211.456 335.961 208.823Z" fill="#F3F3F3"/>
<path d="M137.634 532.52C150.736 493.212 184.584 480.109 186.768 476.834L173.665 447.353L160.563 437.526L135.841 421.147H98.3254L81.9471 430.974C49.1908 453.904 59.2939 460.455 49.467 476.834C39.64 493.212 75.6715 509.59 85.4985 496.488C95.26 483.472 103.555 493.082 114.752 506.053L114.978 506.315C123.804 516.538 130.092 555.143 137.634 532.52Z" fill="white"/>
<path d="M137.196 416.647L163.048 433.774L163.157 433.847L177.302 444.455L191.886 477.27L190.512 479.33C189.938 480.191 189.166 480.809 188.744 481.134C188.224 481.534 187.619 481.941 187.007 482.336C185.822 483.1 184.132 484.121 182.397 485.205C178.789 487.46 174.133 490.512 169.167 494.629C159.247 502.852 148.118 515.297 141.902 533.942C140.913 536.909 139.776 539.44 138.309 541.195C137.546 542.108 136.51 543.033 135.135 543.57C133.659 544.146 132.126 544.142 130.727 543.675C128.307 542.866 126.704 540.817 125.735 539.363C124.632 537.71 123.616 535.668 122.679 533.569C120.863 529.503 118.837 524.004 117.024 519.626C115.046 514.853 113.237 511.185 111.571 509.255L111.346 508.994C108.519 505.719 106.01 502.815 103.638 500.428C101.241 498.015 99.2487 496.406 97.5402 495.533C95.944 494.718 94.8734 494.676 93.9552 494.963C92.8846 495.297 91.2447 496.326 89.0988 499.188C85.4963 503.991 79.7907 505.687 74.3908 505.747C68.9509 505.808 63.1289 504.256 58.0998 501.741C53.1063 499.244 48.4245 495.56 45.6964 490.948C42.8349 486.111 42.179 480.234 45.6085 474.519C47.7952 470.874 48.8739 467.793 49.758 464.733C50.6124 461.776 51.4274 458.206 52.9699 454.594C56.2435 446.926 62.6885 438.963 79.3664 427.288L79.4962 427.197L79.632 427.115L97.0792 416.647H137.196ZM84.4093 434.743C68.425 445.949 63.5621 452.706 61.2472 458.128C59.9926 461.066 59.4431 463.638 58.4044 467.232C57.3954 470.724 56.0521 474.605 53.3253 479.149C51.8416 481.623 52.005 483.936 53.4425 486.366C55.0137 489.022 58.1111 491.684 62.1251 493.691C66.1037 495.681 70.5185 496.79 74.2912 496.748C78.1037 496.706 80.5876 495.535 81.8986 493.787C84.6332 490.141 87.6908 487.491 91.2706 486.372C95.0031 485.206 98.5366 485.936 101.634 487.518C104.619 489.042 107.41 491.455 110.023 494.085C112.66 496.74 115.386 499.902 118.157 503.112L118.384 503.374C121.131 506.556 123.418 511.547 125.338 516.182C127.421 521.21 129.095 525.864 130.897 529.899C131.495 531.239 132.047 532.364 132.555 533.268C132.8 532.683 133.074 531.968 133.364 531.097C140.252 510.435 152.598 496.674 163.423 487.7C168.83 483.218 173.865 479.925 177.627 477.573C179.075 476.668 180.228 475.966 181.191 475.365L170.027 450.25L157.965 441.203L134.486 425.647H99.5714L84.4093 434.743Z" fill="black"/>
<path d="M102.186 411.549C127.506 407.316 147.514 413.794 162.157 425.11C176.286 436.028 184.475 450.677 188.553 462.005C191.615 470.515 187.201 479.898 178.691 482.962C170.181 486.024 160.798 481.609 157.733 473.1C155.144 465.907 150.04 457.143 142.124 451.026C134.724 445.307 123.935 441.121 107.582 443.856C98.6621 445.346 90.2227 439.322 88.7308 430.401C87.2407 421.481 93.2654 413.041 102.186 411.549Z" fill="black"/>
<path d="M628.987 80.4797C631.171 77.204 646.676 49.6885 665.019 44.4474C676.77 41.0902 667.548 58.1823 678.122 60.8257L687.261 58.9981C692.993 54.9625 697.12 47.3954 710.88 54.2744C724.789 61.2274 721.428 67.6973 723.98 70.6527C735.291 83.7554 738.813 69.8788 753.462 77.204C766.563 83.7553 786.968 149.15 773.865 149.15C760.763 149.15 727.256 142.717 740.359 139.442L717.43 143.321L679.914 143.321L655.192 126.942L642.09 117.115L628.987 80.4797Z" fill="white"/>
<path d="M773.194 153.645C766.112 153.545 754.572 151.908 746.232 149.899C744.053 149.374 742.014 148.806 740.278 148.207C738.64 147.64 736.92 146.93 735.625 146.014C735.3 145.784 734.875 145.452 734.454 145.005L718.181 147.757L717.808 147.821L678.559 147.821L652.707 130.694L652.598 130.622L638.308 119.904L623.988 79.8657L625.243 77.9839C626.127 76.6584 630.832 68.5241 637.448 60.3657C643.973 52.3201 653.184 43.149 663.783 40.1206C665.603 39.6006 667.471 39.3369 669.274 39.6421C671.228 39.9731 672.852 40.9342 674.028 42.3784C675.099 43.6958 675.615 45.1908 675.908 46.3735C676.205 47.5688 676.361 48.8296 676.482 49.8677C676.755 52.2283 676.916 53.7454 677.416 54.939C677.656 55.5099 677.918 55.9002 678.435 56.1753L685.389 54.7837C686.331 54.0516 687.233 53.2307 688.56 52.1284C690.059 50.883 691.925 49.4534 694.237 48.4292C699.26 46.2045 705.172 46.39 712.893 50.2495C720.525 54.0652 724.085 58.1091 725.828 62.1977C726.629 64.077 726.973 65.8404 727.197 66.812C727.343 67.4429 727.436 67.7167 727.467 67.8042C729.951 70.6599 731.592 71.5585 732.611 71.8696C733.606 72.1731 734.61 72.1198 736.494 71.7017C738.215 71.3197 741.017 70.5148 744.151 70.4341C747.489 70.3482 751.184 71.0335 755.475 73.1792C758.078 74.4812 760.346 76.9175 762.256 79.5005C764.245 82.1898 766.195 85.5232 768.039 89.186C771.732 96.5208 775.193 105.566 777.804 114.352C780.401 123.092 782.245 131.871 782.543 138.631C782.689 141.94 782.493 145.244 781.505 147.897C780.996 149.264 780.183 150.717 778.849 151.847C777.436 153.045 775.705 153.65 773.865 153.65L773.194 153.645ZM773.111 144.642C773.443 143.662 773.676 141.838 773.552 139.028C773.3 133.322 771.681 125.343 769.177 116.916C766.687 108.534 763.408 100.002 760 93.2329C758.294 89.8439 756.603 86.9929 755.02 84.852C753.358 82.6049 752.121 81.5648 751.449 81.229C748.416 79.7122 746.177 79.3849 744.382 79.4311C742.382 79.4826 740.849 79.9541 738.444 80.4878C736.203 80.9853 733.29 81.4868 729.985 80.478C726.715 79.4802 723.7 77.215 720.573 73.5933C719.119 71.9088 718.673 69.8964 718.428 68.8364C718.13 67.5466 717.965 66.7037 717.549 65.727C716.909 64.2257 715.394 61.8327 710.205 58.9995L689.011 63.2378C685.937 65.191 682.093 66.4565 677.03 65.1909C672.821 64.1385 670.391 61.4577 669.116 58.4194C668.005 55.7699 667.754 52.7278 667.542 50.9048C667.422 49.8645 667.317 49.1325 667.178 48.563C666.948 48.6003 666.644 48.663 666.256 48.7739C658.512 50.9865 650.798 58.1935 644.439 66.0347C639.522 72.0977 635.915 77.8745 633.961 81.0239L645.872 114.327L657.79 123.265L681.271 138.821L717.049 138.821L739.608 135.004L741.319 143.177C742.028 142.031 742.021 140.631 741.503 139.574C741.236 139.029 740.918 138.742 740.824 138.667C741.035 138.816 741.751 139.193 743.217 139.7C744.589 140.174 746.329 140.665 748.339 141.149C756.159 143.032 766.874 144.526 773.111 144.642Z" fill="black"/>
<path d="M155.253 405.361C165.784 402.728 176.452 409.129 179.085 419.66C179.08 419.638 179.278 420.379 180.269 421.924C181.234 423.431 182.7 425.308 184.766 427.516C188.936 431.971 194.699 436.863 201.471 441.841C214.996 451.782 230.695 460.717 240.875 465.807C250.583 470.661 254.52 482.47 249.665 492.178C244.811 501.887 233.002 505.823 223.294 500.969C211.636 495.14 193.926 485.077 178.189 473.51C170.331 467.733 162.494 461.24 156.072 454.38C149.993 447.885 143.479 439.29 140.954 429.192C138.322 418.662 144.723 407.993 155.253 405.361Z" fill="#F3F3F3"/>
<path d="M82.2127 414.559C80.4223 403.854 87.6482 393.725 98.3541 391.935C125.137 387.456 148.089 395.473 164.965 407.159C181.32 418.485 193.28 434.149 198.189 447.784C201.864 457.997 196.564 469.253 186.352 472.93C176.14 476.606 164.88 471.312 161.202 461.101C159.444 456.216 153.192 446.825 142.583 439.478C132.494 432.491 119.729 428.21 104.837 430.701C94.1315 432.491 84.0032 425.265 82.2127 414.559Z" fill="#F1F1F1"/>
<path d="M648.902 96.3705C647.111 85.6646 654.337 75.5364 665.043 73.7459C692.661 69.1271 714.716 78.7601 730.25 92.073C745.257 104.934 754.601 121.456 758.874 133.324C762.549 143.536 757.249 154.793 747.037 158.469C736.824 162.145 725.568 156.845 721.891 146.633C719.496 139.981 713.627 129.595 704.674 121.92C696.245 114.696 685.585 110.161 671.527 112.512C660.821 114.302 650.692 107.076 648.902 96.3705Z" fill="#F1F1F1"/>
<path d="M622.183 106.943C612.994 101.164 610.226 89.0308 616.005 79.8424C621.784 70.6551 633.914 67.8934 643.102 73.6704L719.844 121.93C729.032 127.708 731.799 139.842 726.022 149.03C720.243 158.219 708.104 160.984 698.916 155.205L622.183 106.943Z" fill="#F0F0F0"/>
<path d="M540.262 109.479C538.472 98.773 545.698 88.6448 556.404 86.8543C584.021 82.2355 606.076 91.8685 621.61 105.181C636.617 118.043 645.961 134.564 650.234 146.432C653.909 156.645 648.609 167.901 638.397 171.578C628.185 175.253 616.928 169.953 613.252 159.741C610.856 153.089 604.988 142.703 596.034 135.029C587.605 127.805 576.945 123.269 562.887 125.62C552.181 127.411 542.053 120.185 540.262 109.479Z" fill="#F1F1F1"/>
<path d="M580.258 137.299C577.575 121.242 588.417 106.05 604.474 103.365C635.48 98.1801 660.388 109.085 677.697 123.919C694.215 138.076 704.427 156.129 709.169 169.301C714.684 184.619 706.738 201.511 691.42 207.027C676.101 212.542 659.209 204.596 653.693 189.278C651.768 183.929 646.772 175.067 639.329 168.688C632.676 162.986 624.862 159.731 614.193 161.515C598.135 164.199 582.944 153.357 580.258 137.299Z" fill="#F1F1F1"/>
<path d="M593.191 151.513C617.417 147.463 636.624 155.822 650.381 167.613C663.874 179.177 672.352 194.163 676.155 204.727C677.992 209.833 675.34 215.465 670.234 217.304C665.128 219.141 659.496 216.489 657.657 211.383C654.793 203.427 648.057 191.506 637.589 182.534C627.384 173.788 613.874 167.98 596.426 170.898C591.075 171.791 586.011 168.175 585.116 162.823C584.223 157.472 587.839 152.408 593.191 151.513Z" fill="#EAEAEA"/>
<path d="M370.446 210.472C394.672 206.421 413.879 214.781 427.636 226.571C441.129 238.136 449.607 253.122 453.41 263.685C455.247 268.792 452.595 274.424 447.489 276.262C442.383 278.1 436.751 275.448 434.912 270.342C432.048 262.385 425.312 250.464 414.844 241.493C404.639 232.746 391.129 226.938 373.681 229.856C368.329 230.75 363.266 227.134 362.371 221.782C361.478 216.43 365.094 211.367 370.446 210.472Z" fill="#E5E5E5"/>
<path d="M251.084 329.487C252.219 324.18 257.437 320.799 262.744 321.934C280.359 325.7 297.829 333.265 311.879 342.407C325.533 351.292 337.599 362.736 342.037 375.062C343.874 380.168 341.222 385.8 336.116 387.638C331.01 389.476 325.377 386.824 323.539 381.718C321.308 375.523 313.699 367.045 301.161 358.886C289.019 350.985 273.777 344.383 258.637 341.147C253.33 340.012 249.95 334.794 251.084 329.487Z" fill="#E5E5E5"/>
</svg>
