<svg width="628" height="522" viewBox="0 0 628 522" fill="none" xmlns="http://www.w3.org/2000/svg">
<path d="M505.789 10.0465C525.654 -0.352066 551.367 -5.10685 575.676 11.8816C595.277 25.5807 605.162 46.7458 608.711 66.9767C612.235 87.0604 609.887 108.117 602.903 123.753L575.883 111.683C580.154 102.119 582.204 87.1481 579.562 72.0918C576.947 57.1823 570.104 44.0918 558.722 36.1371C546.69 27.7287 533.641 28.869 519.516 36.2624C505.046 43.8369 491.97 56.9547 484.096 67.0779L460.736 48.9103C470.124 36.8401 486.269 20.2649 505.789 10.0465Z" fill="black"/>
<path d="M62.7186 342.081C49.3272 351.07 38.5668 365.207 33.2277 380.578C27.9072 395.896 28.3077 411.257 35.1831 423.782C49.8884 450.569 77.9231 457.908 102.902 444.459L116.932 470.516C77.7939 491.589 31.8473 479.198 9.24184 438.019C-2.53713 416.561 -2.1341 392.194 5.2731 370.869C12.6619 349.596 27.3609 330.172 46.2272 317.507L62.7186 342.081Z" fill="black"/>
<path d="M157.836 364.319C106.05 376.649 106.05 433.367 123.312 460.493C170.166 534.474 276.205 529.541 446.36 428.435C616.514 327.329 614.048 159.64 599.252 134.98C584.456 110.32 542.534 100.456 458.69 186.766C374.845 273.076 209.622 351.989 157.836 364.319Z" fill="#F3C888"/>
<path d="M559.489 114.593C575.72 123.446 587.935 136.976 594.298 150.441C597.463 157.142 599.564 164.653 599.268 172.096C598.962 179.797 595.946 188.161 588.263 193.78C583.12 197.54 577.674 197.067 575.07 196.539C572.892 196.098 571.025 195.305 569.642 194.613C567.366 199.712 563.821 205.222 558.704 211.191C555.918 214.442 552.192 217.419 547.376 218.936C545.306 219.588 543.257 219.881 541.274 219.918C538.584 225.998 533.686 230.804 527.532 234.223C519.185 238.861 510.446 239.138 502.636 236.588C495.361 234.213 489.364 229.58 484.758 225C484.175 224.42 483.603 223.826 483.038 223.223C480.387 225.087 477.561 226.469 474.884 227.499C477.122 230.557 479.211 233.791 480.996 237.137C486.627 247.695 492.196 265.362 479.927 280.085C475.759 285.087 470.05 287.893 463.821 288.187C459.458 288.392 455.532 287.334 452.358 286.029C450.209 291.181 446.741 296.091 442.031 300.801C439.163 303.669 435.425 306.239 430.756 307.404C428.773 307.899 426.826 308.078 424.947 308.021C424.938 308.11 424.938 308.201 424.928 308.29C424.175 314.992 421.121 321.589 416.754 328.139C413.539 332.961 409.083 337.033 403.182 339.111C397.351 341.162 391.73 340.698 387.162 339.433C378.802 337.118 371.252 331.311 366.062 327.036C365.359 326.458 364.703 325.89 364.068 325.355C363.732 326.004 363.394 326.647 363.037 327.272C362.297 328.566 361.823 329.503 361.52 330.138C362.09 334.977 360.72 339.137 358.731 342.858C356.898 346.286 353.911 350.523 349.541 356.141C344.988 361.996 338.287 365.932 330.179 365.644C323.196 365.396 317.526 362.046 313.774 359.219C313.455 358.978 313.142 358.725 312.826 358.473C310.232 361.547 307.051 363.263 304.315 364.175C301.849 364.997 299.376 365.259 298.285 365.365C294.826 371.076 289.537 374.702 283.392 375.918C283.811 384.087 281.921 393.131 275.113 401.074C270.518 406.435 264.373 409.222 257.846 409.483C251.959 409.719 246.653 407.882 242.588 405.929C234.534 402.06 226.693 395.4 220.548 389.64C220.133 389.251 219.723 388.854 219.31 388.46C215.968 397.197 209.394 406.902 196.432 410.606C189.371 412.623 181.501 411.963 175.143 406.68C169.688 402.147 167.57 395.968 166.657 391.86C166.278 390.156 166.026 388.409 165.867 386.668C163.505 385.383 161.678 383.959 160.496 383.017C155.844 379.31 153.921 377.321 149.626 375.889L158.979 347.819C168.22 350.899 174.527 356.202 177.778 358.921L196.928 349.346C200.372 344.824 205.421 343.275 209.446 343.392C212.745 343.489 215.201 344.631 216.174 345.117C217.385 345.721 218.362 346.384 219.006 346.851C221.278 348.496 223.747 350.938 225.615 352.818C230.109 357.343 235.032 362.658 240.786 368.053C245.849 372.799 250.338 376.397 253.858 378.432C253.95 376.986 253.715 375.094 252.866 372.628C252.027 370.194 250.784 367.9 249.518 366.145C248.036 364.091 247.361 363.903 248.223 364.382L261.42 337.931C264.203 339.168 267.735 341.301 269.882 342.54C272.105 343.822 274.04 344.874 275.749 345.656C277.045 343.981 278.535 342.474 280.233 341.172C282.41 339.503 284.626 338.4 286.677 337.656C286.132 335.492 285.366 332.739 284.283 329.275C282.835 324.641 281.582 320.365 281.182 317.34C281.08 316.572 280.879 314.859 281.109 312.842C281.184 312.187 281.948 304.086 290.155 300.565C294.248 298.809 298.001 299.291 300.26 299.943C302.417 300.567 303.966 301.538 304.763 302.087C306.35 303.18 307.456 304.372 307.927 304.895C309.728 306.891 311.802 310.038 313.245 312.211C315.036 314.908 316.983 317.886 319.169 321.02C322.863 326.316 326.411 330.79 329.413 333.687C330.455 332.266 331.194 331.193 331.716 330.393C331.653 329.007 331.683 327.427 331.937 325.899C332.575 322.07 334.246 318.21 336.498 314.099C335.418 312.828 334.281 311.151 333.512 309.037C331.157 302.56 333.529 297.006 335.631 293.995C337.433 291.415 339.74 289.546 341.315 288.365L342.567 287.503C348.854 283.513 355.476 284.476 359.449 285.807C363.473 287.156 366.998 289.513 369.525 291.375C374.182 294.807 380.918 300.938 384.875 304.196C388.598 307.262 391.309 309.105 393.164 310.092C394.038 308.654 394.594 307.547 394.941 306.735C394.847 306.676 394.751 306.61 394.647 306.547C394.14 306.237 392.436 305.23 391.439 304.596C390.277 303.856 388.368 302.584 386.584 300.801C383.292 297.508 382.041 293.666 381.537 291.067C381.022 288.414 381.054 285.911 381.209 283.953C381.519 280.043 382.525 276.004 383.569 272.572C385.699 265.57 388.885 258.236 391.208 253.59L408.408 219.196L415.844 245.98C415.897 245.625 415.965 245.256 416.051 244.877C416.679 242.121 418.664 237.478 423.912 234.854C428.613 232.504 432.887 233.36 434.575 233.828C436.453 234.349 437.81 235.124 438.424 235.495C439.711 236.273 440.656 237.102 441.024 237.431C441.905 238.216 442.746 239.103 443.312 239.709C446.122 242.719 448.984 246.142 453.128 250.286C454.037 251.195 454.919 252.039 455.763 252.819C455.503 252.27 455.216 251.685 454.886 251.066C451.071 243.912 444.495 236.77 439.589 232.846C438.573 232.033 437.02 230.649 435.678 228.627C434.288 226.531 432.603 222.92 433.063 218.281C433.533 213.547 435.982 210.253 437.956 208.388C439.801 206.646 441.698 205.673 442.802 205.171C444.995 204.172 447.26 203.635 448.601 203.34C450.133 203.003 451.829 202.705 453.277 202.449C456.333 201.909 459.044 201.42 461.547 200.744L461.933 198.37C461.753 196.588 461.588 194.375 461.711 192.291C461.908 188.959 463.115 180.595 471.498 176.156L482.976 170.078C482.36 168.533 481.58 165.991 481.786 162.849C482.048 158.851 483.857 154.804 487.339 151.901C490.353 149.388 493.537 148.635 495.301 148.37C498.654 147.867 501.658 148.458 503.041 148.761C507.524 149.742 513.248 152.117 517.866 154.261L522.032 156.269L527.397 158.952L529.377 164.616C531.894 171.807 535.98 180.889 540.161 186.844C541.787 184.449 542.582 182.749 542.969 181.71C540.545 177.627 538.678 174.283 537.372 171.624C536.594 170.039 535.803 168.273 535.234 166.509C534.95 165.63 534.592 164.37 534.401 162.892C534.238 161.639 533.996 158.83 535.104 155.59C536.476 151.578 539.723 147.676 544.785 146.025C548.322 144.871 551.388 145.298 553.079 145.683C550.712 143.831 548.122 142.101 545.319 140.573L559.489 114.593ZM420.217 261.176C421.622 265.373 423.399 269.779 425.308 273.424C425.306 273.239 425.295 273.038 425.26 272.808C425.105 271.775 424.62 270.182 423.348 267.442C422.377 265.351 421.433 263.531 420.217 261.176ZM491.944 183.222C494.804 189.658 499.941 198.365 505.627 204.019C508.459 206.835 510.599 208.061 511.821 208.46C512.509 208.685 512.631 208.653 513.16 208.359C513.374 208.24 513.55 208.122 513.704 208.027C513.443 207.246 512.899 205.946 511.739 204.053C507.165 196.59 498.736 188.526 490.764 180.573L491.944 183.222Z" fill="#B98440"/>
<path fill-rule="evenodd" clip-rule="evenodd" d="M447.179 69.6326C397.169 64.4539 331.523 113.922 273.325 157.669C243.733 180.307 215.374 201.564 191.158 213.894C179.025 220.109 167.238 225.682 156.042 231.008C125.266 245.804 99.0278 258.085 86.5004 273.177C79.4231 281.396 73.8772 290.817 70.1261 300.994C68.2569 306.426 67.1127 312.081 66.723 317.812C91.2352 310.069 115.747 300.944 140.161 290.341C170.651 277.413 200.301 262.588 228.937 245.952C314.804 195.596 376.898 136.708 446.686 70.0764L447.179 69.6326ZM535.019 60.6069C539.401 61.8561 543.107 64.7949 545.322 68.7767C547.537 72.7586 548.08 77.4573 546.831 81.8393C545.582 86.2213 542.643 89.9276 538.661 92.1428C534.679 94.358 529.98 94.9007 525.598 93.6515C522.886 92.8624 521.899 97.4492 520.666 102.924C515.241 129.113 508.583 160.579 450.878 153.28C445.946 152.688 445.404 156.633 444.664 161.319C440.521 185.979 435.638 215.571 372.015 212.02C370.19 212.02 369.796 216.114 369.352 220.996C367.034 248.024 363.877 280.477 294.977 276.679C287.431 276.235 281.513 275.544 276.729 275.002C271.945 274.459 271.057 272.635 270.021 273.374C265.424 279.956 261.461 286.957 258.184 294.286C255.62 299.218 252.611 304.939 248.32 312.633C236.829 333.989 214.684 333.348 194.068 332.707C188.401 332.118 182.681 332.267 177.052 333.151L175.277 334.186C172.403 337.792 169.767 341.581 167.386 345.53C166.255 347.489 164.75 349.207 162.956 350.584C161.162 351.962 159.115 352.973 156.93 353.559C154.746 354.145 152.467 354.295 150.224 354.001C147.982 353.706 145.819 352.973 143.86 351.843C141.901 350.713 140.183 349.208 138.806 347.414C137.428 345.62 136.417 343.572 135.831 341.387C135.245 339.203 135.095 336.924 135.389 334.682C135.683 332.439 136.417 330.276 137.547 328.317C140.985 322.649 144.791 317.212 148.94 312.041C152.242 307.612 156.718 304.195 161.862 302.177C171.726 297.245 183.119 297.788 195.104 298.133C205.559 298.478 216.755 298.824 218.185 296.062C221.638 289.749 224.893 283.485 227.704 278.109C237.272 259.762 241.908 250.983 249.8 245.262C259.664 238.308 266.667 239.146 280.477 240.724C284.768 241.168 290.341 241.809 296.802 242.204C332.608 244.226 333.94 229.726 335.025 217.544C337.097 194.906 338.872 175.523 373.741 177.348C406.737 179.074 408.907 166.103 410.732 155.302C414.431 133.009 417.587 114.07 455.12 118.805C481.408 122.159 484.712 107.609 487.03 95.4763C492.307 70.471 496.894 49.4606 534.92 60.311L535.019 60.6069ZM478.202 54.0967C531.911 -10.5128 607.125 17.945 592.033 107.856C598.276 111.565 603.764 116.417 608.21 122.159C627.691 146.326 630.601 173.057 625.817 199.641C621.329 224.695 610.183 248.961 600.072 270.415C583.813 305.663 562.66 338.439 537.238 367.773C513.896 394.493 486.859 417.744 456.945 436.822C431.472 454.658 404.452 470.174 376.207 483.183C347 496.615 316.401 506.787 284.965 513.515C256.165 520.321 226.482 522.617 196.978 520.321C166.301 517.016 137.3 505.919 114.712 481.21L114.268 480.766C112.443 478.695 110.667 476.574 109.04 474.404C105.089 469.108 101.778 463.363 99.1757 457.29C23.3212 449.941 -1.33888 382.668 45.8113 341.288C44.5387 339.601 43.7233 337.613 43.4439 335.518C41.3463 321.267 42.6994 306.722 47.3895 293.103C52.0545 280.215 59.0233 268.283 67.956 257.888C83.8865 238.702 112.344 225.189 145.734 209.307C156.831 204.03 168.52 198.506 180.258 192.489C202.699 180.998 229.924 160.48 259.171 138.533C329.698 85.2671 410.732 24.0113 475.144 52.3705C476.239 52.7989 477.269 53.38 478.202 54.0967ZM423.407 241.859C409.795 252.759 395.788 263.116 381.534 272.98C326.972 311.672 266.538 341.331 202.551 360.819C176.165 369.549 155.253 376.404 137.991 389.376C136.462 390.51 134.884 391.842 133.305 393.272C123.985 401.461 118.175 412.923 117.079 425.281C116.37 437.856 120.281 450.257 128.077 460.15C129.212 461.679 130.494 463.208 131.875 464.737L132.27 465.131C150.37 484.86 174.093 493.836 199.394 496.548C226.362 498.592 253.484 496.429 279.786 490.137C309.494 483.821 338.408 474.227 365.998 461.531C392.948 449.058 418.73 434.203 443.036 417.143L443.924 416.502C471.923 398.687 497.233 376.964 519.088 351.991C543.02 324.284 562.943 293.355 578.272 260.107C587.791 239.787 598.346 217.1 602.193 195.35C605.842 175.129 603.771 154.957 589.517 137.201C586.534 133.26 582.687 130.054 578.272 127.83C574.23 125.989 569.766 125.273 565.351 125.759C537.534 128.126 510.802 157.028 487.326 182.428C479.139 191.256 471.346 199.739 463.554 207.088C450.402 219.451 437.019 230.959 423.407 241.612V241.859Z" fill="black"/>
<path d="M16.8568 413.64C2.9807 361.853 61.6566 312.533 133.171 292.805L147.555 356.921C94.2893 376.65 94.5367 436.656 101.113 460.494C78.9187 472.824 30.7329 465.426 16.8568 413.64Z" fill="#F4A358"/>
<path d="M562.258 21.5435C534.639 5.76098 495.676 26.4751 478.414 53.6015L559.792 107.854C573.602 101.935 586.919 105.388 591.851 107.854C599.249 88.1258 596.783 41.2715 562.258 21.5435Z" fill="#F4A358"/>
<path d="M135.345 327.958C136.359 319.849 143.752 314.099 151.861 315.112C172.778 317.727 186.614 329.425 194.953 342.373C203.01 354.883 206.193 368.813 206.72 378.294C207.172 386.453 200.925 393.432 192.767 393.885C184.608 394.337 177.629 388.09 177.176 379.932C176.88 374.617 174.883 365.862 170.076 358.398C165.551 351.371 158.838 345.804 148.19 344.473C140.082 343.46 134.332 336.066 135.345 327.958Z" fill="#ECC433"/>
<path d="M115.705 280.108C114.357 272.048 119.797 264.423 127.856 263.075C148.647 259.598 165.251 266.85 176.946 276.873C188.243 286.555 195.278 298.993 198.494 307.928C201.261 315.616 197.271 324.09 189.583 326.858C181.895 329.625 173.421 325.635 170.653 317.947C168.85 312.939 164.432 305.12 157.691 299.343C151.345 293.904 143.321 290.49 132.737 292.26C124.677 293.607 117.052 288.168 115.705 280.108Z" fill="#ECC433"/>
<path d="M204.48 314.632C203.133 306.573 208.572 298.948 216.632 297.6C237.423 294.123 254.027 301.375 265.722 311.397C277.019 321.079 284.054 333.517 287.27 342.452C290.037 350.14 286.047 358.615 278.359 361.382C270.671 364.149 262.197 360.159 259.429 352.471C257.626 347.463 253.208 339.645 246.467 333.867C240.121 328.428 232.097 325.014 221.513 326.784C213.453 328.132 205.828 322.692 204.48 314.632Z" fill="#ECC433"/>
<path d="M174.89 250.518C173.542 242.458 178.982 234.833 187.042 233.486C207.833 230.008 224.437 237.26 236.131 247.283C247.429 256.965 254.463 269.403 257.68 278.338C260.446 286.026 256.457 294.5 248.769 297.268C241.08 300.035 232.606 296.045 229.838 288.357C228.035 283.349 223.617 275.53 216.876 269.753C210.531 264.314 202.506 260.9 191.922 262.67C183.863 264.018 176.238 258.578 174.89 250.518Z" fill="#ECC433"/>
<path d="M263.668 299.838C262.32 291.778 267.76 284.153 275.82 282.805C296.611 279.328 313.215 286.58 324.909 296.603C336.207 306.285 343.241 318.723 346.458 327.658C349.225 335.346 345.235 343.82 337.547 346.588C329.859 349.355 321.384 345.365 318.616 337.677C316.813 332.669 312.395 324.85 305.655 319.072C299.309 313.634 291.284 310.219 280.7 311.99C272.641 313.337 265.016 307.898 263.668 299.838Z" fill="#ECC433"/>
<path d="M230.959 282.035C229.611 273.975 235.051 266.351 243.111 265.003C263.902 261.526 280.506 268.777 292.2 278.8C303.498 288.482 310.533 300.92 313.749 309.855C316.516 317.543 312.526 326.017 304.838 328.785C297.15 331.552 288.675 327.562 285.908 319.874C284.104 314.866 279.686 307.047 272.946 301.27C266.6 295.831 258.575 292.417 247.992 294.187C239.932 295.535 232.307 290.095 230.959 282.035Z" fill="#ECC433"/>
<path d="M234.076 201.197C232.728 193.137 238.168 185.512 246.228 184.164C267.019 180.687 283.623 187.939 295.317 197.961C306.615 207.644 313.649 220.082 316.866 229.016C319.633 236.705 315.643 245.179 307.955 247.947C300.267 250.713 291.792 246.724 289.024 239.036C287.221 234.028 282.803 226.209 276.062 220.431C269.717 214.993 261.692 211.578 251.108 213.348C243.049 214.696 235.424 209.256 234.076 201.197Z" fill="#ECC433"/>
<path d="M317.92 240.654C316.572 232.594 322.012 224.969 330.071 223.621C350.862 220.144 367.466 227.396 379.161 237.418C390.458 247.101 397.493 259.539 400.71 268.473C403.476 276.162 399.486 284.636 391.798 287.404C384.11 290.17 375.636 286.181 372.868 278.493C371.065 273.485 366.647 265.666 359.906 259.888C353.561 254.45 345.536 251.035 334.952 252.805C326.892 254.153 319.268 248.713 317.92 240.654Z" fill="#ECC433"/>
<path d="M288.325 171.605C286.977 163.546 292.417 155.921 300.477 154.573C321.268 151.096 337.872 158.348 349.566 168.37C360.864 178.053 367.898 190.49 371.115 199.425C373.882 207.113 369.892 215.588 362.204 218.355C354.516 221.122 346.041 217.132 343.273 209.444C341.47 204.436 337.052 196.618 330.311 190.84C323.966 185.402 315.941 181.987 305.357 183.757C297.298 185.105 289.673 179.665 288.325 171.605Z" fill="#ECC433"/>
<path d="M391.896 220.925C390.548 212.866 395.988 205.241 404.048 203.893C424.839 200.416 441.443 207.668 453.137 217.69C464.435 227.372 471.469 239.81 474.686 248.745C477.453 256.433 473.463 264.907 465.775 267.675C458.087 270.442 449.612 266.452 446.844 258.764C445.041 253.756 440.623 245.937 433.883 240.16C427.537 234.721 419.512 231.307 408.928 233.077C400.869 234.425 393.244 228.985 391.896 220.925Z" fill="#ECC433"/>
<path d="M352.444 142.012C351.096 133.952 356.536 126.327 364.595 124.979C385.387 121.502 401.991 128.754 413.685 138.776C424.983 148.459 432.017 160.897 435.234 169.831C438 177.519 434.011 185.994 426.323 188.762C418.634 191.528 410.16 187.538 407.392 179.85C405.589 174.843 401.171 167.024 394.43 161.246C388.085 155.808 380.06 152.393 369.476 154.163C361.417 155.511 353.792 150.071 352.444 142.012Z" fill="#ECC433"/>
<path d="M446.154 171.605C444.806 163.546 450.246 155.921 458.306 154.573C479.097 151.096 495.701 158.348 507.395 168.37C518.693 178.053 525.727 190.49 528.944 199.425C531.711 207.113 527.721 215.588 520.033 218.355C512.345 221.122 503.87 217.132 501.102 209.444C499.299 204.436 494.881 196.618 488.141 190.84C481.795 185.402 473.77 181.987 463.186 183.757C455.127 185.105 447.502 179.665 446.154 171.605Z" fill="#ECC433"/>
<path d="M500.403 132.147C499.055 124.088 504.495 116.463 512.555 115.115C533.346 111.638 549.95 118.89 561.644 128.912C572.942 138.595 579.976 151.032 583.193 159.967C585.96 167.655 581.97 176.13 574.282 178.897C566.594 181.664 558.119 177.674 555.352 169.986C553.548 164.978 549.13 157.16 542.39 151.382C536.044 145.944 528.019 142.529 517.435 144.299C509.376 145.647 501.751 140.207 500.403 132.147Z" fill="#ECC433"/>
<path d="M182.812 320.61C187.884 314.203 197.192 313.12 203.599 318.192L262.783 365.046C269.19 370.118 270.273 379.427 265.201 385.834C260.129 392.241 250.821 393.323 244.414 388.252L185.229 341.397C178.823 336.325 177.74 327.017 182.812 320.61Z" fill="#E6BC23"/>
<path d="M217.341 197.31C222.413 190.904 231.722 189.821 238.129 194.893L297.313 241.747C303.72 246.819 304.803 256.128 299.731 262.534C294.659 268.941 285.35 270.024 278.943 264.952L219.759 218.098C213.352 213.026 212.269 203.717 217.341 197.31Z" fill="#ECC433"/>
<path d="M311.046 118.396C316.118 111.99 325.427 110.907 331.834 115.978L391.018 162.833C397.425 167.905 398.508 177.213 393.436 183.62C388.364 190.027 379.055 191.11 372.649 186.038L313.464 139.184C307.057 134.112 305.975 124.803 311.046 118.396Z" fill="#ECC433"/>
<path d="M394.885 69.078C399.957 62.6712 409.266 61.5883 415.672 66.6601L474.857 113.514C481.264 118.586 482.346 127.895 477.275 134.302C472.203 140.709 462.894 141.792 456.487 136.72L397.303 89.8657C390.896 84.7936 389.813 75.4849 394.885 69.078Z" fill="#ECC433"/>
<path d="M264.215 231.174C272.375 231.592 278.653 238.547 278.236 246.707L273.304 342.881C272.885 351.042 265.931 357.32 257.771 356.902C249.61 356.484 243.332 349.529 243.75 341.369L248.682 245.195C249.1 237.034 256.055 230.756 264.215 231.174Z" fill="#E6BC23"/>
<path d="M323.407 181.851C331.567 182.27 337.845 189.224 337.427 197.384L332.495 293.559C332.077 301.719 325.122 307.997 316.962 307.579C308.802 307.161 302.524 300.207 302.942 292.046L307.874 195.872C308.292 187.711 315.246 181.434 323.407 181.851Z" fill="#E6BC23"/>
<path d="M402.316 132.533C410.477 132.951 416.754 139.906 416.337 148.066L411.405 244.24C410.986 252.401 404.032 258.679 395.872 258.261C387.711 257.842 381.434 250.888 381.851 242.728L386.783 146.553C387.202 138.393 394.156 132.115 402.316 132.533Z" fill="#E6BC23"/>
<path d="M370.213 144.695C378.168 142.83 386.131 147.766 387.997 155.721L409.978 249.48C411.843 257.435 406.907 265.398 398.952 267.264C390.996 269.129 383.034 264.192 381.168 256.237L359.187 162.479C357.322 154.523 362.258 146.56 370.213 144.695Z" fill="#E6BC23"/>
<path d="M436.836 102.942C444.996 103.36 451.274 110.314 450.856 118.475L445.924 214.649C445.506 222.809 438.551 229.087 430.391 228.67C422.231 228.251 415.953 221.297 416.371 213.137L421.303 116.962C421.721 108.802 428.675 102.524 436.836 102.942Z" fill="#E6BC23"/>
<path d="M391.889 123.54C397.908 118.015 407.269 118.413 412.795 124.432L477.918 195.375C483.443 201.394 483.044 210.754 477.026 216.281C471.006 221.806 461.646 221.407 456.12 215.389L390.997 144.446C385.471 138.427 385.87 129.066 391.889 123.54Z" fill="#E6BC23"/>
<path d="M90.2807 281.802C120.026 269.904 144.632 276.258 162.45 289.985C179.336 302.994 189.375 321.917 193.709 335.399C196.209 343.179 191.928 351.514 184.148 354.015C176.369 356.515 168.033 352.234 165.533 344.454C162.468 334.921 155.244 321.789 144.388 313.427C134.464 305.782 120.847 301.45 101.272 309.28C93.6847 312.314 85.0746 308.621 82.0398 301.034C79.0053 293.447 82.6939 284.837 90.2807 281.802Z" fill="#FAD037"/>
<path d="M111.82 293.592C141.565 281.694 166.171 288.048 183.989 301.775C200.875 314.784 210.914 333.707 215.248 347.189C217.748 354.969 213.467 363.304 205.687 365.805C197.908 368.305 189.572 364.024 187.072 356.244C184.007 346.711 176.783 333.579 165.928 325.217C156.003 317.572 142.386 313.24 122.811 321.07C115.224 324.104 106.614 320.411 103.579 312.824C100.544 305.237 104.233 296.627 111.82 293.592Z" fill="#F0C837"/>
<path d="M68.4946 276.872C98.2394 264.974 122.846 271.328 140.664 285.055C157.55 298.064 167.589 316.987 171.923 330.469C174.423 338.249 170.142 346.584 162.362 349.084C154.582 351.585 146.247 347.303 143.746 339.524C140.682 329.991 133.457 316.859 122.602 308.496C112.678 300.851 99.0607 296.519 79.4856 304.349C71.8985 307.384 63.2885 303.691 60.2536 296.104C57.2192 288.517 60.9077 279.907 68.4946 276.872Z" fill="#FAD037"/>
<path d="M142.476 217.688C172.221 205.79 196.827 212.144 214.646 225.871C231.531 238.88 241.57 257.803 245.904 271.285C248.405 279.065 244.123 287.4 236.344 289.901C228.564 292.401 220.229 288.12 217.728 280.34C214.663 270.807 207.439 257.675 196.584 249.313C186.66 241.668 173.042 237.336 153.467 245.166C145.88 248.201 137.27 244.507 134.235 236.92C131.201 229.333 134.889 220.723 142.476 217.688Z" fill="#FAD037"/>
<path d="M198.786 276.872C228.53 264.974 253.137 271.328 270.955 285.055C287.841 298.064 297.88 316.987 302.214 330.469C304.714 338.249 300.433 346.584 292.653 349.084C284.873 351.585 276.538 347.303 274.037 339.524C270.973 329.991 263.748 316.859 252.893 308.496C242.969 300.851 229.352 296.519 209.777 304.349C202.19 307.384 193.579 303.691 190.545 296.104C187.51 288.517 191.199 279.907 198.786 276.872Z" fill="#FAD037"/>
<path d="M218.52 202.89C248.265 190.992 272.871 197.346 290.69 211.073C307.575 224.082 317.614 243.005 321.948 256.487C324.449 264.267 320.167 272.602 312.388 275.103C304.608 277.603 296.273 273.321 293.772 265.542C290.707 256.009 283.483 242.877 272.628 234.514C262.704 226.869 249.086 222.538 229.511 230.368C221.924 233.402 213.314 229.709 210.279 222.122C207.245 214.535 210.933 205.925 218.52 202.89Z" fill="#FAD037"/>
<path d="M336.877 212.755C366.621 200.857 391.228 207.211 409.046 220.938C425.932 233.947 435.971 252.87 440.305 266.352C442.805 274.132 438.524 282.467 430.744 284.968C422.964 287.468 414.629 283.187 412.129 275.407C409.064 265.874 401.84 252.742 390.984 244.38C381.06 236.735 367.443 232.403 347.868 240.233C340.281 243.267 331.671 239.574 328.636 231.987C325.601 224.4 329.29 215.79 336.877 212.755Z" fill="#FAD037"/>
<path d="M327.02 128.91C356.765 117.012 381.371 123.366 399.189 137.093C416.075 150.102 426.114 169.025 430.448 182.507C432.949 190.287 428.667 198.622 420.887 201.123C413.108 203.623 404.772 199.341 402.272 191.562C399.207 182.029 391.983 168.897 381.128 160.534C371.204 152.889 357.586 148.558 338.011 156.388C330.424 159.422 321.814 155.729 318.779 148.142C315.745 140.555 319.433 131.945 327.02 128.91Z" fill="#FAD037"/>
<path d="M455.251 128.91C484.995 117.012 509.602 123.366 527.42 137.093C544.306 150.102 554.345 169.025 558.679 182.507C561.179 190.287 556.898 198.622 549.118 201.123C541.339 203.623 533.003 199.341 530.503 191.562C527.438 182.029 520.214 168.897 509.358 160.534C499.434 152.889 485.817 148.558 466.242 156.388C458.655 159.422 450.045 155.729 447.01 148.142C443.975 140.555 447.664 131.945 455.251 128.91Z" fill="#FAD037"/>
<path d="M383.079 125.903C412.824 114.005 437.43 120.359 455.248 134.086C472.134 147.094 482.173 166.017 486.507 179.5C489.008 187.279 484.726 195.615 476.946 198.115C469.167 200.616 460.831 196.334 458.331 188.555C455.266 179.022 448.042 165.89 437.187 157.527C427.263 149.882 413.645 145.55 394.07 153.38C386.483 156.415 377.873 152.722 374.838 145.135C371.804 137.548 375.492 128.937 383.079 125.903Z" fill="#FAD037"/>
<path d="M402.812 106.175C432.557 94.2775 457.163 100.632 474.982 114.359C491.867 127.367 501.906 146.29 506.24 159.773C508.741 167.552 504.459 175.888 496.68 178.388C488.9 180.889 480.565 176.607 478.064 168.828C474.999 159.294 467.775 146.163 456.92 137.8C446.996 130.155 433.378 125.823 413.803 133.653C406.216 136.688 397.606 132.995 394.571 125.407C391.537 117.82 395.225 109.21 402.812 106.175Z" fill="#FAD037"/>
<path d="M353.488 150.563C383.233 138.665 407.839 145.019 425.657 158.746C442.543 171.755 452.582 190.677 456.916 204.16C459.416 211.94 455.135 220.275 447.355 222.775C439.576 225.276 431.24 220.994 428.74 213.215C425.675 203.682 418.451 190.55 407.595 182.187C397.671 174.542 384.054 170.21 364.479 178.04C356.892 181.075 348.282 177.382 345.247 169.795C342.212 162.208 345.901 153.598 353.488 150.563Z" fill="#FAD037"/>
<path d="M274.577 209.752C304.322 197.854 328.928 204.208 346.747 217.935C363.632 230.944 373.672 249.867 378.005 263.349C380.506 271.129 376.224 279.464 368.445 281.965C360.665 284.465 352.33 280.184 349.829 272.404C346.765 262.871 339.54 249.739 328.685 241.377C318.761 233.732 305.143 229.4 285.568 237.23C277.981 240.264 269.371 236.571 266.336 228.984C263.302 221.397 266.991 212.787 274.577 209.752Z" fill="#FAD037"/>
<path d="M249.915 234.409C279.66 222.511 304.266 228.866 322.085 242.592C338.97 255.601 349.01 274.524 353.343 288.007C355.844 295.786 351.562 304.121 343.783 306.622C336.003 309.122 327.668 304.841 325.167 297.061C322.103 287.528 314.878 274.396 304.023 266.034C294.099 258.389 280.482 254.057 260.907 261.887C253.319 264.922 244.709 261.228 241.675 253.641C238.64 246.054 242.329 237.444 249.915 234.409Z" fill="#FAD037"/>
<path d="M351.677 84.5216C381.422 72.6237 406.028 78.978 423.847 92.7048C440.732 105.714 450.771 124.636 455.105 138.119C457.606 145.898 453.324 154.234 445.545 156.734C437.765 159.235 429.43 154.953 426.929 147.174C423.864 137.641 416.64 124.509 405.785 116.146C395.861 108.501 382.243 104.169 362.668 111.999C355.081 115.034 346.471 111.341 343.436 103.754C340.402 96.1667 344.09 87.5566 351.677 84.5216Z" fill="#FAD037"/>
<path d="M298.316 108.822C328.908 96.585 354.427 103.104 372.903 117.337C390.293 130.733 400.565 150.143 405.005 163.955C407.921 173.031 402.929 182.75 393.855 185.668C384.778 188.585 375.055 183.594 372.137 174.518C369.179 165.314 362.189 152.666 351.836 144.69C342.57 137.551 329.865 133.384 311.137 140.875C302.286 144.416 292.238 140.108 288.698 131.257C285.159 122.406 289.465 112.362 298.316 108.822Z" fill="#F6C926"/>
<path d="M146.923 212.162C159.749 208.956 172.739 216.431 176.51 228.957C176.736 229.297 177.365 230.199 178.74 231.669C181.314 234.418 185.128 237.697 189.953 241.244C199.58 248.32 210.894 254.773 218.187 258.419C230.367 264.51 235.302 279.322 229.212 291.503C223.12 303.683 208.309 308.618 196.128 302.528C186.981 297.954 173.143 290.1 160.741 280.984C154.552 276.434 148.132 271.142 142.733 265.374C137.763 260.064 131.492 252.106 128.982 242.067C125.679 228.855 133.711 215.466 146.923 212.162Z" fill="#F6C926"/>
<path d="M279.602 251.325C287.53 249.343 295.561 254.162 297.543 262.09C297.539 262.073 297.689 262.632 298.434 263.795C299.161 264.929 300.265 266.342 301.82 268.005C304.959 271.358 309.298 275.041 314.396 278.788C324.578 286.273 336.397 292.999 344.06 296.831C351.369 300.485 354.333 309.375 350.678 316.684C347.024 323.993 338.134 326.956 330.825 323.302C322.049 318.914 308.716 311.338 296.869 302.63C290.953 298.281 285.053 293.393 280.219 288.229C275.642 283.339 270.738 276.868 268.837 269.266C266.856 261.339 271.674 253.307 279.602 251.325Z" fill="#F6C926"/>
<path d="M287.413 142.821C295.341 140.839 303.372 145.658 305.354 153.586C305.35 153.569 305.5 154.128 306.245 155.291C306.972 156.425 308.076 157.838 309.631 159.501C312.77 162.854 317.109 166.537 322.207 170.285C332.389 177.769 344.208 184.495 351.871 188.327C359.18 191.981 362.144 200.871 358.489 208.18C354.835 215.489 345.945 218.452 338.636 214.798C329.86 210.41 316.527 202.834 304.68 194.126C298.764 189.777 292.864 184.889 288.03 179.725C283.453 174.835 278.549 168.364 276.648 160.763C274.667 152.835 279.486 144.803 287.413 142.821Z" fill="#F6C926"/>
<path d="M373.313 167.482C381.241 165.501 389.272 170.32 391.254 178.247C391.25 178.231 391.4 178.789 392.145 179.952C392.872 181.086 393.976 182.5 395.531 184.162C398.67 187.515 403.009 191.198 408.107 194.946C418.289 202.43 430.108 209.156 437.771 212.988C445.08 216.643 448.044 225.532 444.389 232.841C440.735 240.15 431.845 243.114 424.536 239.459C415.76 235.071 402.427 227.496 390.58 218.787C384.664 214.438 378.764 209.55 373.93 204.386C369.353 199.496 364.449 193.025 362.548 185.424C360.566 177.496 365.385 169.464 373.313 167.482Z" fill="#F6C926"/>
<path d="M179.062 257.142C208.807 245.244 233.413 251.599 251.231 265.325C268.117 278.334 278.156 297.257 282.49 310.739C284.991 318.519 280.709 326.854 272.929 329.355C265.15 331.855 256.814 327.574 254.314 319.794C251.249 310.261 244.025 297.129 233.17 288.767C223.246 281.122 209.628 276.79 190.053 284.62C182.466 287.655 173.856 283.961 170.821 276.374C167.787 268.787 171.475 260.177 179.062 257.142Z" fill="#FAD037"/>
<path d="M198.786 183.163C228.53 171.265 253.137 177.619 270.955 191.346C287.841 204.355 297.88 223.278 302.214 236.76C304.714 244.54 300.433 252.875 292.653 255.375C284.873 257.876 276.538 253.594 274.037 245.815C270.973 236.282 263.748 223.15 252.893 214.787C242.969 207.142 229.352 202.81 209.777 210.64C202.19 213.675 193.579 209.982 190.545 202.395C187.51 194.808 191.199 186.198 198.786 183.163Z" fill="#FAD037"/>
<path d="M267.834 138.776C297.579 126.878 322.185 133.232 340.003 146.959C356.889 159.967 366.928 178.89 371.262 192.373C373.763 200.152 369.481 208.488 361.701 210.988C353.922 213.489 345.586 209.207 343.086 201.428C340.021 191.895 332.797 178.763 321.942 170.4C312.018 162.755 298.4 158.423 278.825 166.253C271.238 169.288 262.628 165.595 259.593 158.008C256.559 150.421 260.247 141.81 267.834 138.776Z" fill="#FAD037"/>
<path d="M356.606 114.116C386.35 102.218 410.957 108.572 428.775 122.299C445.661 135.308 455.7 154.231 460.034 167.713C462.534 175.493 458.253 183.828 450.473 186.329C442.693 188.829 434.358 184.548 431.858 176.768C428.793 167.235 421.569 154.103 410.713 145.741C400.789 138.095 387.172 133.764 367.597 141.594C360.01 144.628 351.4 140.935 348.365 133.348C345.33 125.761 349.019 117.151 356.606 114.116Z" fill="#FAD037"/>
<path d="M358.422 101.246C388.167 89.3478 412.773 95.7021 430.591 109.429C447.477 122.438 457.516 141.361 461.85 154.843C464.35 162.623 460.069 170.958 452.289 173.458C444.51 175.959 436.174 171.677 433.674 163.898C430.609 154.365 423.385 141.233 412.53 132.87C402.605 125.225 388.988 120.893 369.413 128.723C361.826 131.758 353.216 128.065 350.181 120.478C347.146 112.891 350.835 104.281 358.422 101.246Z" fill="#FAD037"/>
<path d="M126.705 241.462C134.633 239.481 142.665 244.299 144.647 252.227C144.642 252.211 144.792 252.769 145.538 253.932C146.265 255.066 147.368 256.48 148.924 258.142C152.063 261.495 156.401 265.178 161.499 268.926C171.681 276.41 183.5 283.136 191.164 286.968C198.473 290.623 201.436 299.512 197.781 306.821C194.127 314.13 185.237 317.094 177.928 313.439C169.152 309.051 155.82 301.475 143.972 292.767C138.056 288.418 132.156 283.53 127.322 278.366C122.745 273.476 117.841 267.005 115.941 259.404C113.959 251.476 118.778 243.444 126.705 241.462Z" fill="#F6C926"/>
<path d="M109.86 241.462C117.788 239.481 125.819 244.299 127.801 252.227C127.797 252.211 127.947 252.769 128.692 253.932C129.419 255.066 130.522 256.48 132.078 258.142C135.217 261.495 139.556 265.178 144.654 268.926C154.836 276.41 166.655 283.136 174.318 286.968C181.627 290.623 184.59 299.512 180.936 306.821C177.282 314.13 168.392 317.094 161.083 313.439C152.307 309.051 138.974 301.475 127.127 292.767C121.21 288.418 115.311 283.53 110.476 278.366C105.899 273.476 100.996 267.005 99.0952 259.404C97.1133 251.476 101.932 243.444 109.86 241.462Z" fill="#F6C926"/>
<path d="M95.0648 251.325C102.992 249.343 111.024 254.162 113.006 262.09C113.002 262.073 113.152 262.632 113.897 263.795C114.624 264.929 115.727 266.342 117.283 268.005C120.422 271.358 124.761 275.041 129.859 278.788C140.041 286.273 151.86 292.999 159.523 296.831C166.832 300.485 169.795 309.375 166.141 316.684C162.486 323.993 153.596 326.956 146.288 323.302C137.511 318.914 124.179 311.338 112.332 302.63C106.415 298.281 100.515 293.393 95.6813 288.229C91.1043 283.339 86.2005 276.868 84.3001 269.266C82.3182 261.339 87.1371 253.307 95.0648 251.325Z" fill="#F6C926"/>
<path d="M350.926 150.293C360.175 147.981 369.546 153.605 371.859 162.854C371.779 162.534 372.246 164.157 375.543 167.68C378.541 170.882 382.747 174.463 387.777 178.16C397.82 185.543 409.514 192.2 417.085 195.986C425.612 200.25 429.069 210.621 424.806 219.148C420.542 227.675 410.17 231.133 401.643 226.869C392.774 222.434 379.312 214.791 367.326 205.98C361.342 201.581 355.314 196.591 350.339 191.276C345.663 186.281 340.418 179.436 338.365 171.225C336.054 161.976 341.678 152.605 350.926 150.293Z" fill="#F6C926"/>
<path d="M397.97 103.364C405.898 101.382 413.93 106.201 415.912 114.129C415.907 114.112 416.057 114.671 416.803 115.834C417.53 116.968 418.633 118.381 420.188 120.044C423.328 123.397 427.666 127.08 432.764 130.828C442.946 138.312 454.765 145.038 462.429 148.87C469.738 152.524 472.701 161.414 469.046 168.723C465.392 176.032 456.502 178.995 449.193 175.341C440.417 170.953 427.084 163.377 415.237 154.669C409.321 150.32 403.421 145.432 398.587 140.268C394.01 135.378 389.106 128.907 387.206 121.305C385.224 113.378 390.043 105.346 397.97 103.364Z" fill="#F6C926"/>
<path d="M338.784 246.394C346.711 244.412 354.743 249.231 356.725 257.158C356.721 257.142 356.87 257.7 357.616 258.863C358.343 259.998 359.446 261.411 361.002 263.073C364.141 266.426 368.479 270.109 373.577 273.857C383.759 281.341 395.578 288.068 403.242 291.899C410.551 295.554 413.514 304.444 409.86 311.753C406.205 319.061 397.315 322.025 390.006 318.37C381.23 313.982 367.898 306.407 356.05 297.698C350.134 293.349 344.234 288.461 339.4 283.297C334.823 278.407 329.919 271.937 328.019 264.335C326.037 256.407 330.856 248.375 338.784 246.394Z" fill="#F6C926"/>
<path d="M185.898 285.849C193.826 283.867 201.858 288.686 203.839 296.614C203.835 296.597 203.985 297.156 204.731 298.319C205.458 299.453 206.561 300.866 208.116 302.528C211.256 305.882 215.594 309.565 220.692 313.312C230.874 320.797 242.693 327.523 250.357 331.355C257.665 335.009 260.629 343.899 256.974 351.208C253.32 358.517 244.43 361.48 237.121 357.826C228.345 353.438 215.012 345.862 203.165 337.154C197.249 332.805 191.349 327.917 186.515 322.753C181.938 317.863 177.034 311.392 175.134 303.79C173.152 295.863 177.971 287.831 185.898 285.849Z" fill="#F6C926"/>
<path d="M198.04 199.611C207.288 197.299 216.66 202.924 218.972 212.172C218.892 211.852 219.359 213.475 222.656 216.998C225.654 220.201 229.86 223.781 234.89 227.479C244.934 234.862 256.627 241.519 264.198 245.304C272.725 249.568 276.182 259.94 271.919 268.467C267.655 276.994 257.284 280.451 248.757 276.187C239.888 271.753 226.426 264.109 214.44 255.298C208.455 250.899 202.427 245.909 197.452 240.594C192.777 235.599 187.531 228.754 185.478 220.543C183.167 211.295 188.791 201.923 198.04 199.611Z" fill="#F6C926"/>
<path d="M274.669 162.548C282.596 160.566 290.628 165.385 292.61 173.313C292.606 173.297 292.756 173.855 293.501 175.018C294.228 176.152 295.331 177.566 296.887 179.228C300.026 182.581 304.365 186.264 309.463 190.012C319.645 197.496 331.464 204.222 339.127 208.054C346.436 211.708 349.399 220.598 345.745 227.907C342.09 235.216 333.2 238.18 325.892 234.525C317.115 230.137 303.783 222.561 291.936 213.853C286.019 209.504 280.119 204.616 275.285 199.452C270.708 194.562 265.805 188.091 263.904 180.49C261.922 172.562 266.741 164.53 274.669 162.548Z" fill="#F6C926"/>
<path d="M252.889 157.617C260.817 155.635 268.848 160.454 270.83 168.382C270.826 168.365 270.976 168.924 271.721 170.087C272.448 171.221 273.551 172.634 275.107 174.297C278.246 177.65 282.585 181.333 287.683 185.08C297.865 192.565 309.684 199.291 317.347 203.123C324.656 206.777 327.62 215.667 323.965 222.976C320.311 230.285 311.421 233.248 304.112 229.594C295.336 225.206 282.003 217.63 270.156 208.922C264.24 204.573 258.34 199.685 253.506 194.521C248.929 189.631 244.025 183.16 242.124 175.558C240.142 167.631 244.961 159.599 252.889 157.617Z" fill="#F6C926"/>
<path d="M103.585 401.309C113.449 371.717 138.93 361.853 140.574 359.387L130.711 337.193L120.847 329.795L102.236 317.465H73.9923L61.6622 324.863C37.0023 342.125 44.6083 347.057 37.2103 359.387C29.8122 371.717 56.9378 384.047 64.3358 374.183C71.6846 364.385 77.9296 371.619 86.3591 381.384L86.5289 381.581C93.1731 389.278 97.9075 418.341 103.585 401.309Z" fill="#9E591D"/>
<path d="M76.8966 310.235C95.9581 307.048 111.021 311.925 122.045 320.444C132.681 328.664 138.846 339.692 141.916 348.22C144.222 354.626 140.898 361.69 134.492 363.997C128.086 366.302 121.021 362.978 118.714 356.572C116.765 351.157 112.922 344.559 106.963 339.954C101.392 335.649 93.2701 332.498 80.9593 334.557C74.2438 335.679 67.8904 331.143 66.7672 324.427C65.6454 317.712 70.181 311.358 76.8966 310.235Z" fill="#6D3C10"/>
<path d="M473.492 60.9986C475.136 58.5326 486.808 37.8181 500.618 33.8725C509.464 31.3451 502.522 44.2125 510.482 46.2026L517.362 44.8267C521.677 41.7886 524.784 36.0918 535.143 41.2706C545.614 46.505 543.084 51.3757 545.005 53.6006C553.52 63.4647 556.172 53.018 567.2 58.5326C577.063 63.4647 589.393 105.387 579.529 105.387C569.666 105.387 547.471 107.853 557.335 105.387L540.074 108.307L511.831 108.307L493.22 95.9771L483.356 88.579L473.492 60.9986Z" fill="#8A5424"/>
<path d="M116.85 305.578C124.778 303.596 132.809 308.415 134.791 316.342C134.787 316.326 134.937 316.884 135.682 318.047C136.41 319.182 137.513 320.595 139.068 322.257C142.207 325.61 146.546 329.293 151.644 333.041C161.826 340.525 173.645 347.252 181.308 351.083C188.617 354.738 191.581 363.628 187.926 370.937C184.272 378.246 175.382 381.209 168.073 377.554C159.297 373.166 145.964 365.591 134.117 356.882C128.201 352.533 122.301 347.645 117.467 342.481C112.89 337.592 107.986 331.121 106.085 323.519C104.104 315.591 108.923 307.56 116.85 305.578Z" fill="#F6C926"/>
<path d="M61.8615 312.507C60.5136 304.447 65.9535 296.822 74.0132 295.474C94.1765 292.102 111.455 298.138 124.16 306.935C136.472 315.462 145.476 327.254 149.172 337.52C151.939 345.208 147.949 353.682 140.261 356.45C132.573 359.217 124.096 355.232 121.327 347.545C120.003 343.867 115.297 336.797 107.31 331.266C99.7149 326.006 90.1049 322.784 78.894 324.658C70.8343 326.006 63.2095 320.566 61.8615 312.507Z" fill="#ECC433"/>
<path d="M488.478 72.9633C487.131 64.9036 492.57 57.2788 500.63 55.9309C521.421 52.4537 538.025 59.7057 549.72 69.728C561.017 79.4105 568.052 91.8483 571.268 100.783C574.035 108.471 570.045 116.946 562.357 119.713C554.669 122.48 546.195 118.49 543.427 110.802C541.624 105.794 537.206 97.9756 530.465 92.198C524.119 86.7595 516.095 83.345 505.511 85.115C497.451 86.4629 489.826 81.023 488.478 72.9633Z" fill="#ECC433"/>
<path d="M468.369 80.921C461.452 76.5706 459.368 67.4365 463.718 60.5191C468.068 53.6027 477.201 51.5236 484.118 55.8727L541.891 92.2041C548.808 96.5542 550.891 105.689 546.542 112.606C542.192 119.523 533.053 121.605 526.136 117.255L468.369 80.921Z" fill="#E6BC23"/>
<path d="M406.696 82.8291C405.348 74.7694 410.788 67.1445 418.848 65.7966C439.639 62.3195 456.243 69.5714 467.937 79.5938C479.235 89.2763 486.27 101.714 489.486 110.649C492.253 118.337 488.263 126.811 480.575 129.579C472.887 132.346 464.412 128.356 461.645 120.668C459.841 115.66 455.423 107.841 448.683 102.064C442.337 96.6252 434.312 93.2107 423.729 94.9807C415.669 96.3286 408.044 90.8888 406.696 82.8291Z" fill="#ECC433"/>
<path d="M436.802 103.774C434.781 91.6848 442.943 80.2482 455.032 78.2264C478.374 74.3234 497.125 82.5326 510.156 93.7006C522.592 104.359 530.279 117.949 533.85 127.865C538.001 139.398 532.019 152.114 520.487 156.267C508.955 160.419 496.238 154.436 492.086 142.905C490.636 138.878 486.875 132.206 481.271 127.404C476.263 123.111 470.38 120.661 462.349 122.004C450.26 124.024 438.823 115.862 436.802 103.774Z" fill="#ECC433"/>
<path d="M446.544 114.472C464.783 111.423 479.242 117.716 489.599 126.592C499.757 135.299 506.139 146.581 509.002 154.533C510.385 158.377 508.389 162.617 504.545 164.001C500.701 165.385 496.461 163.388 495.077 159.544C492.92 153.554 487.85 144.58 479.969 137.826C472.286 131.241 462.116 126.869 448.98 129.066C444.951 129.738 441.139 127.016 440.465 122.987C439.793 118.958 442.515 115.146 446.544 114.472Z" fill="#E8BE28"/>
<path d="M278.853 158.862C297.091 155.813 311.551 162.106 321.907 170.982C332.065 179.688 338.447 190.97 341.31 198.923C342.694 202.767 340.697 207.007 336.853 208.391C333.009 209.774 328.769 207.778 327.385 203.934C325.228 197.944 320.158 188.969 312.277 182.215C304.594 175.631 294.424 171.259 281.288 173.455C277.259 174.128 273.448 171.406 272.774 167.377C272.101 163.348 274.824 159.536 278.853 158.862Z" fill="#FFD641"/>
<path d="M188.993 248.456C189.847 244.461 193.775 241.916 197.771 242.77C211.032 245.605 224.184 251.301 234.761 258.183C245.04 264.871 254.124 273.487 257.465 282.766C258.848 286.61 256.852 290.85 253.008 292.234C249.164 293.617 244.923 291.621 243.539 287.777C241.86 283.113 236.131 276.731 226.693 270.589C217.551 264.641 206.077 259.67 194.679 257.234C190.684 256.38 188.139 252.451 188.993 248.456Z" fill="#FFD641"/>
</svg>
